<?xml version="1.0" encoding="UTF-8"?><svg id="uuid-213968f9-a6c7-488e-b6c4-6e762b43a162" xmlns="http://www.w3.org/2000/svg" xmlns:xlink="http://www.w3.org/1999/xlink" viewBox="0 0 720 360"><defs><clipPath id="uuid-6867df15-83b8-422c-88e6-a465c8ee9fb9"><rect x="36" y="36" width="360" height="144" style="fill:none; stroke-width:0px;"/></clipPath><clipPath id="uuid-d3b97712-d343-45ce-83b4-d28b7928cdad"><rect x="396" y="36" width="156" height="144" style="fill:none; stroke-width:0px;"/></clipPath><clipPath id="uuid-e4e74e67-4566-4441-8a22-ac101648674b"><rect x="96" y="132" width="300" height="156" style="fill:none; stroke-width:0px;"/></clipPath><clipPath id="uuid-08d1f862-2677-4d4b-b42c-86b5586c1330"><rect x="396" y="132" width="156" height="144" style="fill:none; stroke-width:0px;"/></clipPath></defs><rect width="720" height="360" style="fill:#fff; stroke-width:0px;"/><polygon points="239.3692 264.7309 91.817 272.9282 91.817 133.5734 239.3692 137.6721 239.3692 264.7309" style="fill:#ed1c24; opacity:.25; stroke-width:0px;"/><polygon points="193.1659 180.025 36.0751 180.025 36.0751 36.025 193.1659 49.1159 193.1659 180.025" style="fill:blue; opacity:.25; stroke-width:0px;"/><polygon points="324.075 300.025 36.0751 324.025 36.0751 36.025 324.075 60.025 324.075 300.025" style="fill:none; stroke:#000; stroke-miterlimit:10; stroke-width:1.5px;"/><polygon points="91.817 87.1218 36.0751 84.025 36.0751 36.025 91.817 40.6702 91.817 87.1218" style="fill:none; stroke:#000; stroke-miterlimit:10; stroke-width:.75px;"/><polygon points="91.817 133.5734 36.0751 132.025 36.0751 84.025 91.817 87.1218 91.817 133.5734" style="fill:none; stroke:#000; stroke-miterlimit:10; stroke-width:.75px;"/><polygon points="144.075 90.025 91.817 87.1218 91.817 40.6702 144.075 45.025 144.075 90.025" style="fill:none; stroke:#000; stroke-miterlimit:10; stroke-width:.75px;"/><polygon points="144.075 135.025 91.817 133.5734 91.817 87.1218 144.075 90.025 144.075 135.025" style="fill:none; stroke:#000; stroke-miterlimit:10; stroke-width:.75px;"/><polygon points="193.1659 92.7523 144.075 90.025 144.075 45.025 193.1659 49.1159 193.1659 92.7523" style="fill:none; stroke:#000; stroke-miterlimit:10; stroke-width:.75px;"/><polygon points="193.1659 136.3886 144.075 135.025 144.075 90.025 193.1659 92.7523 193.1659 136.3886" style="fill:none; stroke:#000; stroke-miterlimit:10; stroke-width:.75px;"/><polygon points="239.3692 95.3191 193.1659 92.7523 193.1659 49.1159 239.3692 52.9662 239.3692 95.3191" style="fill:none; stroke:#000; stroke-miterlimit:10; stroke-width:.75px;"/><polygon points="239.3692 137.6721 193.1659 136.3886 193.1659 92.7523 239.3692 95.3191 239.3692 137.6721" style="fill:none; stroke:#000; stroke-miterlimit:10; stroke-width:.75px;"/><polygon points="282.9322 97.7393 239.3692 95.3191 239.3692 52.9662 282.9322 56.5964 282.9322 97.7393" style="fill:none; stroke:#000; stroke-miterlimit:10; stroke-width:.75px;"/><polygon points="324.075 100.025 282.9322 97.7393 282.9322 56.5964 324.075 60.025 324.075 100.025" style="fill:none; stroke:#000; stroke-miterlimit:10; stroke-width:.75px;"/><polygon points="282.9322 138.8821 239.3692 137.6721 239.3692 95.3191 282.9322 97.7393 282.9322 138.8821" style="fill:none; stroke:#000; stroke-miterlimit:10; stroke-width:.75px;"/><polygon points="324.075 140.025 282.9322 138.8821 282.9322 97.7393 324.075 100.025 324.075 140.025" style="fill:none; stroke:#000; stroke-miterlimit:10; stroke-width:.75px;"/><polygon points="91.817 180.025 36.0751 180.025 36.0751 132.025 91.817 133.5734 91.817 180.025" style="fill:none; stroke:#000; stroke-miterlimit:10; stroke-width:.75px;"/><polygon points="144.075 180.025 91.817 180.025 91.817 133.5734 144.075 135.025 144.075 180.025" style="fill:none; stroke:#000; stroke-miterlimit:10; stroke-width:.75px;"/><polygon points="193.1659 180.025 144.075 180.025 144.075 135.025 193.1659 136.3886 193.1659 180.025" style="fill:none; stroke:#000; stroke-miterlimit:10; stroke-width:.75px;"/><polygon points="239.3692 180.025 193.1659 180.025 193.1659 136.3886 239.3692 137.6721 239.3692 180.025" style="fill:none; stroke:#000; stroke-miterlimit:10; stroke-width:.75px;"/><polygon points="282.9322 180.025 239.3692 180.025 239.3692 137.6721 282.9322 138.8821 282.9322 180.025" style="fill:none; stroke:#000; stroke-miterlimit:10; stroke-width:.75px;"/><polygon points="324.075 180.025 282.9322 180.025 282.9322 138.8821 324.075 140.025 324.075 180.025" style="fill:none; stroke:#000; stroke-miterlimit:10; stroke-width:.75px;"/><polygon points="91.817 226.4766 36.0751 228.025 36.0751 180.025 91.817 180.025 91.817 226.4766" style="fill:none; stroke:#000; stroke-miterlimit:10; stroke-width:.75px;"/><polygon points="144.075 225.025 91.817 226.4766 91.817 180.025 144.075 180.025 144.075 225.025" style="fill:none; stroke:#000; stroke-miterlimit:10; stroke-width:.75px;"/><polygon points="193.1659 223.6614 144.075 225.025 144.075 180.025 193.1659 180.025 193.1659 223.6614" style="fill:none; stroke:#000; stroke-miterlimit:10; stroke-width:.75px;"/><polygon points="239.3692 222.378 193.1659 223.6614 193.1659 180.025 239.3692 180.025 239.3692 222.378" style="fill:none; stroke:#000; stroke-miterlimit:10; stroke-width:.75px;"/><polygon points="282.9322 221.1679 239.3692 222.378 239.3692 180.025 282.9322 180.025 282.9322 221.1679" style="fill:none; stroke:#000; stroke-miterlimit:10; stroke-width:.75px;"/><polygon points="324.075 220.025 282.9322 221.1679 282.9322 180.025 324.075 180.025 324.075 220.025" style="fill:none; stroke:#000; stroke-miterlimit:10; stroke-width:.75px;"/><polygon points="91.817 272.9282 36.0751 276.025 36.0751 228.025 91.817 226.4766 91.817 272.9282" style="fill:none; stroke:#000; stroke-miterlimit:10; stroke-width:.75px;"/><polygon points="144.075 270.025 91.817 272.9282 91.817 226.4766 144.075 225.025 144.075 270.025" style="fill:none; stroke:#000; stroke-miterlimit:10; stroke-width:.75px;"/><polygon points="193.1659 267.2977 144.075 270.025 144.075 225.025 193.1659 223.6614 193.1659 267.2977" style="fill:none; stroke:#000; stroke-miterlimit:10; stroke-width:.75px;"/><polygon points="239.3692 264.7309 193.1659 267.2977 193.1659 223.6614 239.3692 222.378 239.3692 264.7309" style="fill:none; stroke:#000; stroke-miterlimit:10; stroke-width:.75px;"/><polygon points="282.9322 262.3107 239.3692 264.7309 239.3692 222.378 282.9322 221.1679 282.9322 262.3107" style="fill:none; stroke:#000; stroke-miterlimit:10; stroke-width:.75px;"/><polygon points="324.075 260.025 282.9322 262.3107 282.9322 221.1679 324.075 220.025 324.075 260.025" style="fill:none; stroke:#000; stroke-miterlimit:10; stroke-width:.75px;"/><polygon points="91.817 319.3799 36.0751 324.025 36.0751 276.025 91.817 272.9282 91.817 319.3799" style="fill:none; stroke:#000; stroke-miterlimit:10; stroke-width:.75px;"/><polygon points="144.075 315.025 91.817 319.3799 91.817 272.9282 144.075 270.025 144.075 315.025" style="fill:none; stroke:#000; stroke-miterlimit:10; stroke-width:.75px;"/><polygon points="193.1659 310.9341 144.075 315.025 144.075 270.025 193.1659 267.2977 193.1659 310.9341" style="fill:none; stroke:#000; stroke-miterlimit:10; stroke-width:.75px;"/><polygon points="239.3692 307.0839 193.1659 310.9341 193.1659 267.2977 239.3692 264.7309 239.3692 307.0839" style="fill:none; stroke:#000; stroke-miterlimit:10; stroke-width:.75px;"/><polygon points="282.9322 303.4536 239.3692 307.0839 239.3692 264.7309 282.9322 262.3107 282.9322 303.4536" style="fill:none; stroke:#000; stroke-miterlimit:10; stroke-width:.75px;"/><polygon points="324.075 300.025 282.9322 303.4536 282.9322 262.3107 324.075 260.025 324.075 300.025" style="fill:none; stroke:#000; stroke-miterlimit:10; stroke-width:.75px;"/><g style="clip-path:url(#uuid-6867df15-83b8-422c-88e6-a465c8ee9fb9);"><line x1="63.946" y1="61.5734" x2="477.8709" y2="111.0484" style="fill:none; stroke:blue; stroke-miterlimit:10;"/><path d="M63.4998,65.3066c-2.0615-.2464-3.5334-2.1179-3.287-4.1794s2.1179-3.5334,4.1794-3.287c2.0615.2464,3.5333,2.1179,3.2869,4.1794-.2464,2.0615-2.1179,3.5334-4.1794,3.287Z" style="fill:blue; stroke-width:0px;"/><path d="M477.4247,114.7816c2.0615.2464,3.933-1.2255,4.1794-3.287.2464-2.0615-1.2255-3.933-3.287-4.1794-2.0615-.2464-3.933,1.2255-4.1794,3.287-.2464,2.0615,1.2255,3.933,3.287,4.1794Z" style="fill:blue; stroke-width:0px;"/><line x1="63.946" y1="108.7992" x2="477.8709" y2="111.0484" style="fill:none; stroke:blue; stroke-miterlimit:10;"/><path d="M63.9256,112.5589c-2.0762-.0113-3.7506-1.704-3.7393-3.7801.0113-2.0761,1.704-3.7506,3.7802-3.7393,2.0761.0113,3.7505,1.704,3.7392,3.7801s-1.704,3.7506-3.7801,3.7393Z" style="fill:blue; stroke-width:0px;"/><path d="M477.8505,114.8081c2.0762.0113,3.7689-1.6631,3.7802-3.7393.0113-2.0761-1.6631-3.7689-3.7393-3.7801-2.0761-.0113-3.7688,1.6631-3.7801,3.7393-.0113,2.0761,1.6631,3.7689,3.7393,3.7801Z" style="fill:blue; stroke-width:0px;"/><line x1="63.946" y1="156.025" x2="477.8709" y2="111.0484" style="fill:none; stroke:blue; stroke-miterlimit:10;"/><path d="M64.3522,159.7628c-2.0641.2243-3.9197-1.2676-4.1439-3.3316-.2243-2.064,1.2676-3.9196,3.3317-4.1439,2.064-.2243,3.9196,1.2676,4.1439,3.3316.2243,2.064-1.2676,3.9196-3.3316,4.1439Z" style="fill:blue; stroke-width:0px;"/><path d="M478.2771,114.7861c2.0641-.2243,3.5559-2.0799,3.3317-4.1439s-2.0799-3.5559-4.144-3.3316c-2.064.2243-3.5559,2.0799-3.3316,4.1439.2243,2.064,2.0799,3.5559,4.1439,3.3316Z" style="fill:blue; stroke-width:0px;"/><line x1="117.946" y1="152.9286" x2="477.8709" y2="111.0484" style="fill:none; stroke:blue; stroke-miterlimit:10;"/><path d="M118.3806,156.6632c-2.0623.24-3.9292-1.2378-4.1692-3.3s1.2378-3.9292,3.3001-4.1691c2.0622-.24,3.9291,1.2378,4.1691,3.3s-1.2378,3.9292-3.3,4.1691Z" style="fill:blue; stroke-width:0px;"/><path d="M478.3055,114.783c2.0623-.24,3.54-2.1069,3.3-4.1691s-2.1069-3.54-4.1692-3.3c-2.0622.24-3.5399,2.1069-3.3,4.1691s2.1069,3.54,4.1691,3.3Z" style="fill:blue; stroke-width:0px;"/><line x1="117.946" y1="111.0734" x2="477.8709" y2="111.0484" style="fill:none; stroke:blue; stroke-miterlimit:10;"/><path d="M117.9463,114.8332c-2.0762.0001-3.7599-1.6833-3.7601-3.7595-.0001-2.0762,1.6833-3.7599,3.7595-3.76,2.0761-.0001,3.7598,1.6833,3.76,3.7595.0001,2.0762-1.6833,3.7599-3.7595,3.76Z" style="fill:blue; stroke-width:0px;"/><path d="M477.8712,114.8082c2.0762-.0001,3.7597-1.6839,3.7596-3.76-.0002-2.0762-1.6839-3.7597-3.7601-3.7595-2.0761.0001-3.7596,1.6839-3.7595,3.76.0001,2.0762,1.6838,3.7597,3.76,3.7595Z" style="fill:blue; stroke-width:0px;"/><line x1="117.946" y1="65.3476" x2="477.8709" y2="111.0484" style="fill:none; stroke:blue; stroke-miterlimit:10;"/><path d="M117.4724,69.0774c-2.0597-.2615-3.5178-2.1438-3.2563-4.2034.2615-2.0596,2.1438-3.5178,4.2034-3.2562,2.0596.2615,3.5177,2.1438,3.2562,4.2034-.2615,2.0596-2.1438,3.5178-4.2034,3.2562Z" style="fill:blue; stroke-width:0px;"/><path d="M477.3974,114.7782c2.0597.2615,3.9419-1.1966,4.2034-3.2562.2615-2.0596-1.1966-3.9419-3.2563-4.2034-2.0596-.2615-3.9419,1.1966-4.2034,3.2562-.2615,2.0596,1.1966,3.9419,3.2562,4.2034Z" style="fill:blue; stroke-width:0px;"/><line x1="168.6205" y1="68.8886" x2="477.8709" y2="111.0484" style="fill:none; stroke:blue; stroke-miterlimit:10;"/><path d="M168.1126,72.614c-2.0572-.2804-3.4979-2.176-3.2175-4.2332.2804-2.0571,2.176-3.4979,4.2332-3.2174,2.0571.2804,3.4978,2.176,3.2174,4.2332-.2804,2.0571-2.176,3.4979-4.2331,3.2175Z" style="fill:blue; stroke-width:0px;"/><path d="M477.3631,114.7737c2.0572.2805,3.9528-1.1603,4.2332-3.2174.2805-2.0571-1.1603-3.9527-3.2175-4.2332-2.0571-.2804-3.9527,1.1603-4.2331,3.2175-.2805,2.0571,1.1603,3.9527,3.2174,4.2332Z" style="fill:blue; stroke-width:0px;"/><line x1="168.6205" y1="113.2068" x2="477.8709" y2="111.0484" style="fill:none; stroke:blue; stroke-miterlimit:10;"/><path d="M168.6467,116.9665c-2.0761.0145-3.7715-1.6573-3.7859-3.7334-.0145-2.0761,1.6573-3.7714,3.7335-3.7859,2.0761-.0145,3.7714,1.6573,3.7859,3.7334.0145,2.0761-1.6573,3.7714-3.7334,3.7859Z" style="fill:blue; stroke-width:0px;"/><path d="M477.8972,114.8081c2.0762-.0145,3.748-1.7098,3.7335-3.7859-.0145-2.0761-1.7098-3.7479-3.7859-3.7334-2.0761.0145-3.7479,1.7098-3.7334,3.7859.0145,2.0761,1.7098,3.7479,3.7859,3.7334Z" style="fill:blue; stroke-width:0px;"/><line x1="168.6205" y1="153.73" x2="477.8709" y2="111.0484" style="fill:none; stroke:blue; stroke-miterlimit:10;"/><path d="M169.1345,157.4544c-2.0567.2839-3.9547-1.1537-4.2385-3.2104s1.1538-3.9547,3.2105-4.2385c2.0566-.2838,3.9546,1.1538,4.2384,3.2104.2839,2.0567-1.1537,3.9547-3.2104,4.2385Z" style="fill:blue; stroke-width:0px;"/><path d="M478.385,114.7728c2.0567-.2839,3.4943-2.1818,3.2105-4.2385-.2839-2.0567-2.1819-3.4943-4.2386-3.2104-2.0566.2839-3.4942,2.1818-3.2104,4.2385.2839,2.0567,2.1818,3.4943,4.2385,3.2104Z" style="fill:blue; stroke-width:0px;"/></g><g style="clip-path:url(#uuid-d3b97712-d343-45ce-83b4-d28b7928cdad);"><g style="opacity:.51;"><line x1="63.946" y1="61.5734" x2="477.871" y2="111.0484" style="fill:none; stroke:blue; stroke-miterlimit:10;"/><path d="M63.4998,65.3066c-2.0615-.2464-3.5334-2.1179-3.287-4.1794s2.1179-3.5334,4.1794-3.287c2.0615.2464,3.5333,2.1179,3.2869,4.1794-.2464,2.0615-2.1179,3.5334-4.1794,3.287Z" style="fill:blue; stroke-width:0px;"/><path d="M477.4247,114.7816c2.0615.2464,3.933-1.2255,4.1794-3.287.2464-2.0615-1.2255-3.933-3.287-4.1794-2.0615-.2464-3.933,1.2255-4.1794,3.287-.2464,2.0615,1.2255,3.933,3.2869,4.1794Z" style="fill:blue; stroke-width:0px;"/><line x1="63.946" y1="108.7992" x2="477.871" y2="111.0484" style="fill:none; stroke:blue; stroke-miterlimit:10;"/><path d="M63.9256,112.5589c-2.0762-.0113-3.7506-1.704-3.7393-3.7801s1.704-3.7506,3.7802-3.7393c2.0761.0113,3.7505,1.704,3.7392,3.7801-.0113,2.0761-1.704,3.7506-3.7801,3.7393Z" style="fill:blue; stroke-width:0px;"/><path d="M477.8505,114.8081c2.0762.0113,3.7689-1.6631,3.7802-3.7393.0113-2.0761-1.6631-3.7689-3.7393-3.7801-2.0761-.0113-3.7688,1.6631-3.7801,3.7393-.0113,2.0761,1.6631,3.7689,3.7392,3.7801Z" style="fill:blue; stroke-width:0px;"/><line x1="63.946" y1="156.025" x2="477.871" y2="111.0484" style="fill:none; stroke:blue; stroke-miterlimit:10;"/><path d="M64.3522,159.7628c-2.064.2243-3.9197-1.2676-4.1439-3.3316s1.2676-3.9196,3.3317-4.1439c2.064-.2243,3.9196,1.2676,4.1439,3.3316.2243,2.064-1.2676,3.9196-3.3316,4.1439Z" style="fill:blue; stroke-width:0px;"/><path d="M478.2771,114.7861c2.0641-.2243,3.5559-2.0799,3.3317-4.1439-.2243-2.064-2.0799-3.5559-4.144-3.3316-2.064.2243-3.5558,2.0799-3.3316,4.1439.2243,2.064,2.0799,3.5559,4.1439,3.3316Z" style="fill:blue; stroke-width:0px;"/><line x1="117.946" y1="152.9286" x2="477.871" y2="111.0484" style="fill:none; stroke:blue; stroke-miterlimit:10;"/><path d="M118.3806,156.6632c-2.0623.24-3.9292-1.2378-4.1692-3.3-.24-2.0623,1.2378-3.9292,3.3001-4.1691,2.0622-.24,3.9291,1.2378,4.1691,3.3s-1.2378,3.9292-3.3,4.1691Z" style="fill:blue; stroke-width:0px;"/><path d="M478.3055,114.7829c2.0623-.24,3.54-2.1069,3.3-4.1691s-2.1068-3.54-4.1691-3.3c-2.0622.24-3.5399,2.1069-3.3,4.1691s2.1068,3.54,4.1691,3.3Z" style="fill:blue; stroke-width:0px;"/><line x1="117.946" y1="111.0734" x2="477.871" y2="111.0484" style="fill:none; stroke:blue; stroke-miterlimit:10;"/><path d="M117.9463,114.8332c-2.0762.0001-3.7599-1.6833-3.7601-3.7595s1.6833-3.7599,3.7595-3.76c2.0761-.0001,3.7598,1.6833,3.76,3.7595.0001,2.0762-1.6833,3.7599-3.7595,3.76Z" style="fill:blue; stroke-width:0px;"/><path d="M477.8712,114.8081c2.0762-.0001,3.7597-1.6839,3.7596-3.76s-1.6839-3.7597-3.7601-3.7595c-2.0761.0001-3.7596,1.6839-3.7595,3.76.0002,2.0762,1.6839,3.7597,3.76,3.7595Z" style="fill:blue; stroke-width:0px;"/><line x1="117.946" y1="65.3476" x2="477.871" y2="111.0484" style="fill:none; stroke:blue; stroke-miterlimit:10;"/><path d="M117.4724,69.0774c-2.0597-.2615-3.5178-2.1438-3.2563-4.2034.2615-2.0596,2.1438-3.5178,4.2034-3.2562,2.0596.2615,3.5177,2.1438,3.2562,4.2034-.2615,2.0596-2.1438,3.5178-4.2034,3.2562Z" style="fill:blue; stroke-width:0px;"/><path d="M477.3974,114.7782c2.0597.2615,3.9419-1.1966,4.2035-3.2562.2615-2.0596-1.1966-3.9419-3.2563-4.2034-2.0596-.2615-3.9418,1.1966-4.2034,3.2562-.2615,2.0596,1.1966,3.9419,3.2562,4.2034Z" style="fill:blue; stroke-width:0px;"/><line x1="168.6205" y1="68.8886" x2="477.871" y2="111.0484" style="fill:none; stroke:blue; stroke-miterlimit:10;"/><path d="M168.1126,72.6139c-2.0572-.2804-3.4979-2.176-3.2175-4.2332.2804-2.0571,2.176-3.4979,4.2332-3.2174,2.0571.2804,3.4978,2.176,3.2174,4.2332-.2804,2.0571-2.176,3.4979-4.2331,3.2174Z" style="fill:blue; stroke-width:0px;"/><path d="M477.3631,114.7737c2.0572.2805,3.9528-1.1603,4.2332-3.2174s-1.1603-3.9527-3.2175-4.2332c-2.0571-.2804-3.9527,1.1603-4.2332,3.2175-.2804,2.0571,1.1603,3.9527,3.2174,4.2332Z" style="fill:blue; stroke-width:0px;"/><line x1="168.6205" y1="113.2068" x2="477.871" y2="111.0484" style="fill:none; stroke:blue; stroke-miterlimit:10;"/><path d="M168.6467,116.9665c-2.0761.0145-3.7715-1.6573-3.7859-3.7334-.0145-2.0761,1.6573-3.7714,3.7335-3.7859,2.0761-.0145,3.7714,1.6573,3.7859,3.7334.0145,2.0761-1.6573,3.7714-3.7334,3.7859Z" style="fill:blue; stroke-width:0px;"/><path d="M477.8972,114.8081c2.0761-.0145,3.748-1.7098,3.7335-3.7859s-1.7098-3.7479-3.7859-3.7334c-2.0761.0145-3.7479,1.7098-3.7334,3.7859s1.7098,3.7479,3.7859,3.7334Z" style="fill:blue; stroke-width:0px;"/><line x1="168.6205" y1="153.73" x2="477.871" y2="111.0484" style="fill:none; stroke:blue; stroke-miterlimit:10;"/><path d="M169.1346,157.4544c-2.0567.2839-3.9547-1.1537-4.2385-3.2104s1.1538-3.9547,3.2105-4.2385c2.0566-.2838,3.9546,1.1538,4.2385,3.2104.2838,2.0567-1.1537,3.9547-3.2104,4.2385Z" style="fill:blue; stroke-width:0px;"/><path d="M478.385,114.7728c2.0567-.2839,3.4943-2.1818,3.2104-4.2385s-2.1818-3.4943-4.2385-3.2104c-2.0566.2839-3.4942,2.1818-3.2104,4.2385.2838,2.0567,2.1818,3.4943,4.2385,3.2104Z" style="fill:blue; stroke-width:0px;"/></g></g><g style="clip-path:url(#uuid-e4e74e67-4566-4441-8a22-ac101648674b);"><line x1="168.5454" y1="202.5" x2="528.5454" y2="202.5" style="fill:none; stroke:#ed1c24; stroke-miterlimit:10;"/><path d="M168.5454,206.2598c-2.0762,0-3.7598-1.6836-3.7598-3.7598s1.6836-3.7598,3.7598-3.7598,3.7597,1.6836,3.7597,3.7598-1.6836,3.7598-3.7597,3.7598Z" style="fill:#ed1c24; stroke-width:0px;"/><path d="M528.5454,206.2598c2.0762,0,3.7598-1.6836,3.7598-3.7598s-1.6836-3.7598-3.7598-3.7598-3.7597,1.6836-3.7597,3.7598,1.6836,3.7598,3.7597,3.7598Z" style="fill:#ed1c24; stroke-width:0px;"/><line x1="168.6205" y1="246.8432" x2="528.5454" y2="202.5" style="fill:none; stroke:#ed1c24; stroke-miterlimit:10;"/><path d="M169.0802,250.5748c-2.0606.2539-3.9375-1.2112-4.1913-3.2718-.2539-2.0606,1.2112-3.9374,3.2719-4.1913,2.0605-.2539,3.9374,1.2112,4.1912,3.2718.2539,2.0606-1.2112,3.9374-3.2718,4.1913Z" style="fill:#ed1c24; stroke-width:0px;"/><path d="M529.0052,206.2316c2.0606-.2539,3.5257-2.1307,3.2719-4.1913-.2539-2.0606-2.1307-3.5257-4.1913-3.2718-2.0605.2539-3.5256,2.1307-3.2718,4.1913.2539,2.0606,2.1307,3.5257,4.1913,3.2718Z" style="fill:#ed1c24; stroke-width:0px;"/><line x1="168.6205" y1="161.3002" x2="528.4881" y2="202.4941" style="fill:none; stroke:#ed1c24; stroke-miterlimit:10;"/><path d="M168.1929,165.0356c-2.0627-.2361-3.5439-2.1003-3.3078-4.163s2.1003-3.5439,4.163-3.3078c2.0627.2361,3.5439,2.1003,3.3078,4.163-.2361,2.0627-2.1003,3.5439-4.1629,3.3078Z" style="fill:#ed1c24; stroke-width:0px;"/><path d="M528.0605,206.2294c2.0627.2361,3.9269-1.2451,4.163-3.3078.2361-2.0627-1.2451-3.9268-3.3078-4.163-2.0627-.2361-3.9268,1.2451-4.163,3.3078-.2361,2.0627,1.2451,3.9268,3.3077,4.163Z" style="fill:#ed1c24; stroke-width:0px;"/><line x1="216.1925" y1="158.1818" x2="528.4881" y2="202.4941" style="fill:none; stroke:#ed1c24; stroke-miterlimit:10;"/><path d="M215.6643,161.9043c-2.0556-.2917-3.486-2.1951-3.1943-4.2507.2917-2.0556,2.1951-3.486,4.2507-3.1943,2.0556.2917,3.4859,2.1951,3.1943,4.2507-.2917,2.0556-2.1951,3.486-4.2506,3.1943Z" style="fill:#ed1c24; stroke-width:0px;"/><path d="M527.9599,206.2166c2.0556.2917,3.959-1.1387,4.2507-3.1943.2916-2.0556-1.1387-3.959-3.1943-4.2507-2.0555-.2917-3.959,1.1387-4.2507,3.1943-.2916,2.0556,1.1387,3.959,3.1943,4.2507Z" style="fill:#ed1c24; stroke-width:0px;"/><line x1="216.1925" y1="201.8182" x2="528.5454" y2="202.5" style="fill:none; stroke:#ed1c24; stroke-miterlimit:10;"/><path d="M216.1843,205.5779c-2.0762-.0045-3.7561-1.6918-3.7516-3.768.0045-2.0762,1.6918-3.7561,3.768-3.7516,2.0761.0045,3.7561,1.6918,3.7515,3.768s-1.6918,3.7561-3.7679,3.7516Z" style="fill:#ed1c24; stroke-width:0px;"/><path d="M528.5372,206.2598c2.0762.0045,3.7635-1.6754,3.768-3.7515.0045-2.0762-1.6754-3.7634-3.7516-3.768s-3.7634,1.6754-3.7679,3.7516c-.0045,2.0762,1.6754,3.7634,3.7515,3.768Z" style="fill:#ed1c24; stroke-width:0px;"/><line x1="216.2675" y1="244.8379" x2="528.5454" y2="202.5" style="fill:none; stroke:#ed1c24; stroke-miterlimit:10;"/><path d="M216.7727,248.5635c-2.0574.2789-3.9519-1.1632-4.2308-3.2206-.2789-2.0573,1.1632-3.9519,3.2206-4.2308,2.0573-.2789,3.9518,1.1632,4.2308,3.2206.2789,2.0574-1.1632,3.9519-3.2205,4.2308Z" style="fill:#ed1c24; stroke-width:0px;"/><path d="M529.0505,206.2257c2.0574-.2789,3.4996-2.1735,3.2206-4.2308s-2.1735-3.4995-4.2308-3.2206-3.4995,2.1735-3.2206,4.2308,2.1735,3.4995,4.2308,3.2206Z" style="fill:#ed1c24; stroke-width:0px;"/><line x1="117.946" y1="248.9766" x2="528.5454" y2="202.5" style="fill:none; stroke:#ed1c24; stroke-miterlimit:10;"/><path d="M118.3689,252.7125c-2.063.2335-3.9253-1.25-4.1588-3.313-.2335-2.063,1.25-3.9253,3.3131-4.1588,2.063-.2335,3.9252,1.25,4.1588,3.313.2335,2.063-1.25,3.9253-3.313,4.1588Z" style="fill:#ed1c24; stroke-width:0px;"/><path d="M528.9683,206.2359c2.063-.2335,3.5466-2.0958,3.313-4.1588-.2335-2.063-2.0958-3.5466-4.1588-3.313-2.063.2335-3.5465,2.0958-3.313,4.1588.2335,2.063,2.0958,3.5466,4.1588,3.313Z" style="fill:#ed1c24; stroke-width:0px;"/><line x1="117.871" y1="203.2262" x2="528.5454" y2="202.5004" style="fill:none; stroke:#ed1c24; stroke-miterlimit:10;"/><path d="M117.8776,206.9859c-2.0762.0037-3.7628-1.677-3.7664-3.7531-.0037-2.0762,1.677-3.7627,3.7532-3.7664,2.0761-.0037,3.7627,1.677,3.7664,3.7531.0037,2.0762-1.6769,3.7627-3.7531,3.7664Z" style="fill:#ed1c24; stroke-width:0px;"/><path d="M528.5521,206.2601c2.0762-.0037,3.7568-1.6902,3.7532-3.7664-.0037-2.0762-1.6902-3.7568-3.7664-3.7531-2.0762.0037-3.7568,1.6902-3.7531,3.7664.0037,2.0762,1.6902,3.7568,3.7664,3.7531Z" style="fill:#ed1c24; stroke-width:0px;"/><line x1="117.946" y1="160.5196" x2="528.5454" y2="202.5001" style="fill:none; stroke:#ed1c24; stroke-miterlimit:10;"/><path d="M117.5636,164.2598c-2.0654-.2112-3.5691-2.0573-3.3579-4.1227.2112-2.0654,2.0573-3.569,4.1227-3.3578,2.0654.2112,3.569,2.0573,3.3578,4.1227-.2112,2.0654-2.0573,3.569-4.1227,3.3579Z" style="fill:#ed1c24; stroke-width:0px;"/><path d="M528.163,206.2404c2.0654.2112,3.9116-1.2924,4.1227-3.3578.2111-2.0654-1.2925-3.9115-3.3579-4.1227-2.0654-.2112-3.9115,1.2924-4.1227,3.3578-.2111,2.0654,1.2925,3.9115,3.3578,4.1227Z" style="fill:#ed1c24; stroke-width:0px;"/></g><g style="clip-path:url(#uuid-08d1f862-2677-4d4b-b42c-86b5586c1330);"><g style="opacity:.5;"><line x1="168.5454" y1="202.5" x2="528.5454" y2="202.5" style="fill:none; stroke:#ed1c24; stroke-miterlimit:10;"/><path d="M168.5454,206.2598c-2.0762,0-3.7598-1.6836-3.7598-3.7598s1.6836-3.7598,3.7598-3.7598,3.7597,1.6836,3.7597,3.7598-1.6836,3.7598-3.7597,3.7598Z" style="fill:#ed1c24; stroke-width:0px;"/><path d="M528.5454,206.2598c2.0762,0,3.7598-1.6836,3.7598-3.7598s-1.6836-3.7598-3.7598-3.7598-3.7597,1.6836-3.7597,3.7598,1.6836,3.7598,3.7597,3.7598Z" style="fill:#ed1c24; stroke-width:0px;"/><line x1="168.6205" y1="246.8432" x2="528.5454" y2="202.5" style="fill:none; stroke:#ed1c24; stroke-miterlimit:10;"/><path d="M169.0802,250.5747c-2.0606.2539-3.9375-1.2112-4.1913-3.2718-.2539-2.0606,1.2112-3.9374,3.2719-4.1913,2.0606-.2539,3.9374,1.2112,4.1913,3.2718.2539,2.0606-1.2112,3.9374-3.2718,4.1913Z" style="fill:#ed1c24; stroke-width:0px;"/><path d="M529.0052,206.2315c2.0606-.2539,3.5257-2.1307,3.2719-4.1913-.2539-2.0606-2.1307-3.5257-4.1913-3.2718-2.0605.2539-3.5256,2.1307-3.2718,4.1913.2539,2.0606,2.1307,3.5257,4.1913,3.2718Z" style="fill:#ed1c24; stroke-width:0px;"/><line x1="168.6205" y1="161.3002" x2="528.4881" y2="202.494" style="fill:none; stroke:#ed1c24; stroke-miterlimit:10;"/><path d="M168.1929,165.0355c-2.0627-.2361-3.5439-2.1003-3.3078-4.163s2.1003-3.5439,4.163-3.3078c2.0627.2361,3.5439,2.1003,3.3078,4.163s-2.1003,3.5439-4.1629,3.3078Z" style="fill:#ed1c24; stroke-width:0px;"/><path d="M528.0605,206.2294c2.0627.2361,3.9269-1.2451,4.163-3.3078.2361-2.0627-1.2451-3.9268-3.3078-4.163s-3.9268,1.2451-4.163,3.3078c-.2361,2.0627,1.2451,3.9268,3.3077,4.1629Z" style="fill:#ed1c24; stroke-width:0px;"/><line x1="216.1925" y1="158.1818" x2="528.4881" y2="202.494" style="fill:none; stroke:#ed1c24; stroke-miterlimit:10;"/><path d="M215.6643,161.9043c-2.0556-.2917-3.486-2.1951-3.1943-4.2507.2917-2.0556,2.1951-3.486,4.2507-3.1943,2.0556.2917,3.4859,2.1951,3.1943,4.2507-.2917,2.0556-2.1951,3.486-4.2506,3.1943Z" style="fill:#ed1c24; stroke-width:0px;"/><path d="M527.9599,206.2165c2.0556.2917,3.959-1.1387,4.2507-3.1943.2916-2.0556-1.1387-3.959-3.1943-4.2507-2.0555-.2917-3.959,1.1387-4.2507,3.1943-.2916,2.0556,1.1387,3.959,3.1943,4.2507Z" style="fill:#ed1c24; stroke-width:0px;"/><line x1="216.1925" y1="201.8182" x2="528.5454" y2="202.5" style="fill:none; stroke:#ed1c24; stroke-miterlimit:10;"/><path d="M216.1843,205.5779c-2.0762-.0045-3.7561-1.6918-3.7516-3.768s1.6918-3.7561,3.768-3.7516c2.0761.0045,3.756,1.6918,3.7515,3.768-.0045,2.0762-1.6918,3.7561-3.7679,3.7516Z" style="fill:#ed1c24; stroke-width:0px;"/><path d="M528.5372,206.2597c2.0762.0045,3.7635-1.6754,3.768-3.7516.0045-2.0762-1.6754-3.7634-3.7516-3.768-2.0761-.0045-3.7634,1.6754-3.7679,3.7516-.0045,2.0762,1.6754,3.7634,3.7515,3.768Z" style="fill:#ed1c24; stroke-width:0px;"/><line x1="216.2675" y1="244.8378" x2="528.5454" y2="202.5" style="fill:none; stroke:#ed1c24; stroke-miterlimit:10;"/><path d="M216.7727,248.5635c-2.0574.2789-3.9519-1.1632-4.2308-3.2206s1.1632-3.9519,3.2206-4.2308c2.0573-.2789,3.9518,1.1632,4.2308,3.2206s-1.1632,3.9519-3.2205,4.2308Z" style="fill:#ed1c24; stroke-width:0px;"/><path d="M529.0505,206.2257c2.0574-.2789,3.4996-2.1735,3.2206-4.2308-.2789-2.0574-2.1735-3.4995-4.2308-3.2206-2.0573.2789-3.4995,2.1734-3.2205,4.2308.2789,2.0573,2.1734,3.4995,4.2307,3.2206Z" style="fill:#ed1c24; stroke-width:0px;"/><line x1="117.946" y1="248.9766" x2="528.5454" y2="202.5" style="fill:none; stroke:#ed1c24; stroke-miterlimit:10;"/><path d="M118.3689,252.7125c-2.063.2335-3.9253-1.25-4.1588-3.313-.2335-2.063,1.25-3.9253,3.3131-4.1588,2.063-.2335,3.9252,1.25,4.1588,3.313.2335,2.063-1.25,3.9253-3.313,4.1588Z" style="fill:#ed1c24; stroke-width:0px;"/><path d="M528.9683,206.2359c2.063-.2335,3.5466-2.0958,3.313-4.1588-.2335-2.063-2.0958-3.5466-4.1588-3.313-2.063.2335-3.5465,2.0958-3.313,4.1588.2335,2.063,2.0958,3.5466,4.1588,3.313Z" style="fill:#ed1c24; stroke-width:0px;"/><line x1="117.871" y1="203.2262" x2="528.5454" y2="202.5003" style="fill:none; stroke:#ed1c24; stroke-miterlimit:10;"/><path d="M117.8776,206.9859c-2.0762.0037-3.7628-1.6769-3.7664-3.7531s1.6769-3.7627,3.7531-3.7664c2.0761-.0037,3.7627,1.6769,3.7664,3.7531s-1.6769,3.7627-3.7531,3.7664Z" style="fill:#ed1c24; stroke-width:0px;"/><path d="M528.5521,206.2601c2.0762-.0037,3.7568-1.6902,3.7532-3.7664-.0037-2.0762-1.6902-3.7568-3.7664-3.7531s-3.7568,1.6902-3.7531,3.7664c.0037,2.0762,1.6902,3.7568,3.7664,3.7531Z" style="fill:#ed1c24; stroke-width:0px;"/><line x1="117.946" y1="160.5195" x2="528.5454" y2="202.5001" style="fill:none; stroke:#ed1c24; stroke-miterlimit:10;"/><path d="M117.5636,164.2598c-2.0654-.2112-3.5691-2.0573-3.3579-4.1227.2112-2.0654,2.0573-3.569,4.1227-3.3579,2.0654.2112,3.569,2.0573,3.3578,4.1227-.2112,2.0654-2.0573,3.569-4.1226,3.3579Z" style="fill:#ed1c24; stroke-width:0px;"/><path d="M528.163,206.2404c2.0654.2112,3.9116-1.2924,4.1227-3.3578.2111-2.0654-1.2925-3.9115-3.3579-4.1227-2.0654-.2112-3.9115,1.2925-4.1226,3.3579-.2112,2.0654,1.2924,3.9115,3.3578,4.1227Z" style="fill:#ed1c24; stroke-width:0px;"/></g></g><polygon points="553.0909 223.6364 504 225 504 180 553.0909 180 553.0909 223.6364" style="fill:#ed1c24; opacity:.25; stroke-width:0px;"/><polygon points="504 135 451.7419 133.5484 451.7419 87.0968 504 90 504 135" style="fill:blue; opacity:.25; stroke-width:0px;"/><polygon points="684 300 396 324 396 36 684 60 684 300" style="fill:none; stroke:#000; stroke-miterlimit:10; stroke-width:1.5px;"/><polygon points="451.7419 87.0968 396 84 396 36 451.7419 40.6452 451.7419 87.0968" style="fill:none; stroke:#000; stroke-miterlimit:10; stroke-width:.75px;"/><polygon points="451.7419 133.5484 396 132 396 84 451.7419 87.0968 451.7419 133.5484" style="fill:none; stroke:#000; stroke-miterlimit:10; stroke-width:.75px;"/><polygon points="504 90 451.7419 87.0968 451.7419 40.6452 504 45 504 90" style="fill:none; stroke:#000; stroke-miterlimit:10; stroke-width:.75px;"/><polygon points="504 135 451.7419 133.5484 451.7419 87.0968 504 90 504 135" style="fill:none; stroke:#000; stroke-miterlimit:10; stroke-width:.75px;"/><polygon points="553.0909 92.7273 504 90 504 45 553.0909 49.0909 553.0909 92.7273" style="fill:none; stroke:#000; stroke-miterlimit:10; stroke-width:.75px;"/><polygon points="553.0909 136.3636 504 135 504 90 553.0909 92.7273 553.0909 136.3636" style="fill:none; stroke:#000; stroke-miterlimit:10; stroke-width:.75px;"/><polygon points="599.2941 95.2941 553.0909 92.7273 553.0909 49.0909 599.2941 52.9412 599.2941 95.2941" style="fill:none; stroke:#000; stroke-miterlimit:10; stroke-width:.75px;"/><polygon points="599.2941 137.647 553.0909 136.3636 553.0909 92.7273 599.2941 95.2941 599.2941 137.647" style="fill:none; stroke:#000; stroke-miterlimit:10; stroke-width:.75px;"/><polygon points="642.8571 97.7143 599.2941 95.2941 599.2941 52.9412 642.8571 56.5714 642.8571 97.7143" style="fill:none; stroke:#000; stroke-miterlimit:10; stroke-width:.75px;"/><polygon points="684 100 642.8571 97.7143 642.8571 56.5714 684 60 684 100" style="fill:none; stroke:#000; stroke-miterlimit:10; stroke-width:.75px;"/><polygon points="642.8571 138.8571 599.2941 137.647 599.2941 95.2941 642.8571 97.7143 642.8571 138.8571" style="fill:none; stroke:#000; stroke-miterlimit:10; stroke-width:.75px;"/><polygon points="684 140 642.8571 138.8571 642.8571 97.7143 684 100 684 140" style="fill:none; stroke:#000; stroke-miterlimit:10; stroke-width:.75px;"/><polygon points="451.7419 180 396 180 396 132 451.7419 133.5484 451.7419 180" style="fill:none; stroke:#000; stroke-miterlimit:10; stroke-width:.75px;"/><polygon points="504 180 451.7419 180 451.7419 133.5484 504 135 504 180" style="fill:none; stroke:#000; stroke-miterlimit:10; stroke-width:.75px;"/><polygon points="553.0909 180 504 180 504 135 553.0909 136.3636 553.0909 180" style="fill:none; stroke:#000; stroke-miterlimit:10; stroke-width:.75px;"/><polygon points="599.2941 180 553.0909 180 553.0909 136.3636 599.2941 137.647 599.2941 180" style="fill:none; stroke:#000; stroke-miterlimit:10; stroke-width:.75px;"/><polygon points="642.8571 180 599.2941 180 599.2941 137.647 642.8571 138.8571 642.8571 180" style="fill:none; stroke:#000; stroke-miterlimit:10; stroke-width:.75px;"/><polygon points="684 180 642.8571 180 642.8571 138.8571 684 140 684 180" style="fill:none; stroke:#000; stroke-miterlimit:10; stroke-width:.75px;"/><polygon points="451.7419 226.4516 396 228 396 180 451.7419 180 451.7419 226.4516" style="fill:none; stroke:#000; stroke-miterlimit:10; stroke-width:.75px;"/><polygon points="504 225 451.7419 226.4516 451.7419 180 504 180 504 225" style="fill:none; stroke:#000; stroke-miterlimit:10; stroke-width:.75px;"/><polygon points="553.0909 223.6364 504 225 504 180 553.0909 180 553.0909 223.6364" style="fill:none; stroke:#000; stroke-miterlimit:10; stroke-width:.75px;"/><polygon points="599.2941 222.3529 553.0909 223.6364 553.0909 180 599.2941 180 599.2941 222.3529" style="fill:none; stroke:#000; stroke-miterlimit:10; stroke-width:.75px;"/><polygon points="642.8571 221.1429 599.2941 222.3529 599.2941 180 642.8571 180 642.8571 221.1429" style="fill:none; stroke:#000; stroke-miterlimit:10; stroke-width:.75px;"/><polygon points="684 220 642.8571 221.1429 642.8571 180 684 180 684 220" style="fill:none; stroke:#000; stroke-miterlimit:10; stroke-width:.75px;"/><polygon points="451.7419 272.9032 396 276 396 228 451.7419 226.4516 451.7419 272.9032" style="fill:none; stroke:#000; stroke-miterlimit:10; stroke-width:.75px;"/><polygon points="504 270 451.7419 272.9032 451.7419 226.4516 504 225 504 270" style="fill:none; stroke:#000; stroke-miterlimit:10; stroke-width:.75px;"/><polygon points="553.0909 267.2727 504 270 504 225 553.0909 223.6364 553.0909 267.2727" style="fill:none; stroke:#000; stroke-miterlimit:10; stroke-width:.75px;"/><polygon points="599.2941 264.7059 553.0909 267.2727 553.0909 223.6364 599.2941 222.3529 599.2941 264.7059" style="fill:none; stroke:#000; stroke-miterlimit:10; stroke-width:.75px;"/><polygon points="642.8571 262.2857 599.2941 264.7059 599.2941 222.3529 642.8571 221.1429 642.8571 262.2857" style="fill:none; stroke:#000; stroke-miterlimit:10; stroke-width:.75px;"/><polygon points="684 260 642.8571 262.2857 642.8571 221.1429 684 220 684 260" style="fill:none; stroke:#000; stroke-miterlimit:10; stroke-width:.75px;"/><polygon points="451.7419 319.3548 396 324 396 276 451.7419 272.9032 451.7419 319.3548" style="fill:none; stroke:#000; stroke-miterlimit:10; stroke-width:.75px;"/><polygon points="504 315 451.7419 319.3548 451.7419 272.9032 504 270 504 315" style="fill:none; stroke:#000; stroke-miterlimit:10; stroke-width:.75px;"/><polygon points="553.0909 310.9091 504 315 504 270 553.0909 267.2727 553.0909 310.9091" style="fill:none; stroke:#000; stroke-miterlimit:10; stroke-width:.75px;"/><polygon points="599.2941 307.0588 553.0909 310.9091 553.0909 267.2727 599.2941 264.7059 599.2941 307.0588" style="fill:none; stroke:#000; stroke-miterlimit:10; stroke-width:.75px;"/><polygon points="642.8571 303.4286 599.2941 307.0588 599.2941 264.7059 642.8571 262.2857 642.8571 303.4286" style="fill:none; stroke:#000; stroke-miterlimit:10; stroke-width:.75px;"/><polygon points="684 300 642.8571 303.4286 642.8571 262.2857 684 260 684 300" style="fill:none; stroke:#000; stroke-miterlimit:10; stroke-width:.75px;"/><ellipse cx="477.8668" cy="111.0503" rx="3.757" ry="3.763" style="fill:blue; stroke-width:0px;"/><circle cx="528.5313" cy="202.4859" r="3.7833" style="fill:#ed1c24; stroke-width:0px;"/></svg>