<?xml version="1.0" encoding="UTF-8"?><svg id="uuid-665e4b78-a1db-4320-84fa-93280d78b05a" xmlns="http://www.w3.org/2000/svg" xmlns:xlink="http://www.w3.org/1999/xlink" viewBox="0 0 540 270"><defs><clipPath id="uuid-0a53be2c-16cf-4298-a614-bbb3907db6d2"><polygon points="72.1438 64.4218 40.6438 67.7968 40.6438 40.7968 72.1438 44.1718 72.1438 64.4218" style="fill:none; stroke:#000; stroke-miterlimit:10; stroke-width:.75px;"/></clipPath><clipPath id="uuid-4a47d72d-15e0-4915-8a77-16b73ed3f0f5"><polygon points="72.1438 145.4218 40.6438 148.7968 40.6438 121.7968 72.1438 125.1718 72.1438 145.4218" style="fill:none; stroke:#000; stroke-miterlimit:10; stroke-width:.75px;"/></clipPath><clipPath id="uuid-6bc76bf7-6725-43b6-ab4b-a6c7832b767c"><polygon points="72.1438 226.4218 40.6438 229.7968 40.6438 202.7968 72.1438 206.1718 72.1438 226.4218" style="fill:none; stroke:#000; stroke-miterlimit:10; stroke-width:.75px;"/></clipPath><clipPath id="uuid-28a5c3bf-3924-426d-a02f-f56ed680311c"><polygon points="288.1438 104.9218 256.6438 108.2968 256.6438 81.2968 288.1438 84.6718 288.1438 104.9218" style="fill:none; stroke:#000; stroke-miterlimit:10; stroke-width:.75px;"/></clipPath><clipPath id="uuid-dc059bf0-00e6-4177-bccb-625629b0f723"><polygon points="288.1438 185.9218 256.6438 189.2968 256.6438 162.2968 288.1438 165.6718 288.1438 185.9218" style="fill:none; stroke:#000; stroke-miterlimit:10; stroke-width:.75px;"/></clipPath><clipPath id="uuid-68d3ca26-e7d5-402f-91eb-358d8837ea4f"><polygon points="504.1438 145.4218 472.6438 148.7968 472.6438 121.7968 504.1438 125.1718 504.1438 145.4218" style="fill:none; stroke:#000; stroke-miterlimit:10; stroke-width:.75px;"/></clipPath></defs><rect width="540" height="270" style="fill:#fff; stroke-width:0px;"/><g style="clip-path:url(#uuid-0a53be2c-16cf-4298-a614-bbb3907db6d2);"><line x1="58.6438" y1="42.7254" x2="58.6438" y2="65.8682" style="fill:none; stroke:#000; stroke-miterlimit:10; stroke-width:.75px;"/><line x1="50.3361" y1="41.8353" x2="50.3361" y2="66.7583" style="fill:none; stroke:#000; stroke-miterlimit:10; stroke-width:.75px;"/><line x1="65.8438" y1="43.4968" x2="65.8438" y2="65.0968" style="fill:none; stroke:#000; stroke-miterlimit:10; stroke-width:.75px;"/><line x1="40.6438" y1="54.2968" x2="72.1438" y2="54.2968" style="fill:none; stroke:#000; stroke-miterlimit:10; stroke-width:.75px;"/><line x1="40.6438" y1="61.0468" x2="72.1438" y2="59.3593" style="fill:none; stroke:#000; stroke-miterlimit:10; stroke-width:.75px;"/><line x1="40.6438" y1="47.5468" x2="72.1438" y2="49.2343" style="fill:none; stroke:#000; stroke-miterlimit:10; stroke-width:.75px;"/></g><polygon points="72.1438 64.4218 40.6438 67.7968 40.6438 40.7968 72.1438 44.1718 72.1438 64.4218" style="fill:none; stroke:#000; stroke-miterlimit:10; stroke-width:.75px;"/><circle cx="54" cy="54" r="27" style="fill:none; stroke:#000; stroke-miterlimit:10; stroke-width:1.5px;"/><g style="clip-path:url(#uuid-4a47d72d-15e0-4915-8a77-16b73ed3f0f5);"><line x1="58.6438" y1="123.7254" x2="58.6438" y2="146.8682" style="fill:none; stroke:#000; stroke-miterlimit:10; stroke-width:.75px;"/><line x1="50.3361" y1="122.8353" x2="50.3361" y2="147.7583" style="fill:none; stroke:#000; stroke-miterlimit:10; stroke-width:.75px;"/><line x1="65.8438" y1="124.4968" x2="65.8438" y2="146.0968" style="fill:none; stroke:#000; stroke-miterlimit:10; stroke-width:.75px;"/><line x1="40.6438" y1="135.2968" x2="72.1438" y2="135.2968" style="fill:none; stroke:#000; stroke-miterlimit:10; stroke-width:.75px;"/><line x1="40.6438" y1="142.0468" x2="72.1438" y2="140.3593" style="fill:none; stroke:#000; stroke-miterlimit:10; stroke-width:.75px;"/><line x1="40.6438" y1="128.5468" x2="72.1438" y2="130.2343" style="fill:none; stroke:#000; stroke-miterlimit:10; stroke-width:.75px;"/></g><polygon points="72.1438 145.4218 40.6438 148.7968 40.6438 121.7968 72.1438 125.1718 72.1438 145.4218" style="fill:none; stroke:#000; stroke-miterlimit:10; stroke-width:.75px;"/><circle cx="54" cy="135" r="27" style="fill:none; stroke:#000; stroke-miterlimit:10; stroke-width:1.5px;"/><g style="clip-path:url(#uuid-6bc76bf7-6725-43b6-ab4b-a6c7832b767c);"><line x1="58.6438" y1="204.7254" x2="58.6438" y2="227.8682" style="fill:none; stroke:#000; stroke-miterlimit:10; stroke-width:.75px;"/><line x1="50.3361" y1="203.8353" x2="50.3361" y2="228.7583" style="fill:none; stroke:#000; stroke-miterlimit:10; stroke-width:.75px;"/><line x1="65.8438" y1="205.4968" x2="65.8438" y2="227.0968" style="fill:none; stroke:#000; stroke-miterlimit:10; stroke-width:.75px;"/><line x1="40.6438" y1="216.2968" x2="72.1438" y2="216.2968" style="fill:none; stroke:#000; stroke-miterlimit:10; stroke-width:.75px;"/><line x1="40.6438" y1="223.0468" x2="72.1438" y2="221.3593" style="fill:none; stroke:#000; stroke-miterlimit:10; stroke-width:.75px;"/><line x1="40.6438" y1="209.5468" x2="72.1438" y2="211.2343" style="fill:none; stroke:#000; stroke-miterlimit:10; stroke-width:.75px;"/></g><polygon points="72.1438 226.4218 40.6438 229.7968 40.6438 202.7968 72.1438 206.1718 72.1438 226.4218" style="fill:none; stroke:#000; stroke-miterlimit:10; stroke-width:.75px;"/><circle cx="54" cy="216" r="27" style="fill:none; stroke:#000; stroke-miterlimit:10; stroke-width:1.5px;"/><g style="clip-path:url(#uuid-28a5c3bf-3924-426d-a02f-f56ed680311c);"><line x1="274.6438" y1="83.2254" x2="274.6438" y2="106.3682" style="fill:none; stroke:#000; stroke-miterlimit:10; stroke-width:.75px;"/><line x1="266.3361" y1="82.3353" x2="266.3361" y2="107.2583" style="fill:none; stroke:#000; stroke-miterlimit:10; stroke-width:.75px;"/><line x1="281.8438" y1="83.9968" x2="281.8438" y2="105.5968" style="fill:none; stroke:#000; stroke-miterlimit:10; stroke-width:.75px;"/><line x1="256.6438" y1="94.7968" x2="288.1438" y2="94.7968" style="fill:none; stroke:#000; stroke-miterlimit:10; stroke-width:.75px;"/><line x1="256.6438" y1="101.5468" x2="288.1438" y2="99.8593" style="fill:none; stroke:#000; stroke-miterlimit:10; stroke-width:.75px;"/><line x1="256.6438" y1="88.0468" x2="288.1438" y2="89.7343" style="fill:none; stroke:#000; stroke-miterlimit:10; stroke-width:.75px;"/></g><polygon points="288.1438 104.9218 256.6438 108.2968 256.6438 81.2968 288.1438 84.6718 288.1438 104.9218" style="fill:none; stroke:#000; stroke-miterlimit:10; stroke-width:.75px;"/><circle cx="270" cy="94.5" r="27" style="fill:none; stroke:#000; stroke-miterlimit:10; stroke-width:1.5px;"/><g style="clip-path:url(#uuid-dc059bf0-00e6-4177-bccb-625629b0f723);"><line x1="274.6438" y1="164.2254" x2="274.6438" y2="187.3682" style="fill:none; stroke:#000; stroke-miterlimit:10; stroke-width:.75px;"/><line x1="266.3361" y1="163.3353" x2="266.3361" y2="188.2583" style="fill:none; stroke:#000; stroke-miterlimit:10; stroke-width:.75px;"/><line x1="281.8438" y1="164.9968" x2="281.8438" y2="186.5968" style="fill:none; stroke:#000; stroke-miterlimit:10; stroke-width:.75px;"/><line x1="256.6438" y1="175.7968" x2="288.1438" y2="175.7968" style="fill:none; stroke:#000; stroke-miterlimit:10; stroke-width:.75px;"/><line x1="256.6438" y1="182.5468" x2="288.1438" y2="180.8593" style="fill:none; stroke:#000; stroke-miterlimit:10; stroke-width:.75px;"/><line x1="256.6438" y1="169.0468" x2="288.1438" y2="170.7343" style="fill:none; stroke:#000; stroke-miterlimit:10; stroke-width:.75px;"/></g><polygon points="288.1438 185.9218 256.6438 189.2968 256.6438 162.2968 288.1438 165.6718 288.1438 185.9218" style="fill:none; stroke:#000; stroke-miterlimit:10; stroke-width:.75px;"/><circle cx="270" cy="175.5" r="27" style="fill:none; stroke:#000; stroke-miterlimit:10; stroke-width:1.5px;"/><g style="clip-path:url(#uuid-68d3ca26-e7d5-402f-91eb-358d8837ea4f);"><line x1="490.6438" y1="123.7254" x2="490.6438" y2="146.8682" style="fill:none; stroke:#000; stroke-miterlimit:10; stroke-width:.75px;"/><line x1="482.3361" y1="122.8353" x2="482.3361" y2="147.7583" style="fill:none; stroke:#000; stroke-miterlimit:10; stroke-width:.75px;"/><line x1="497.8438" y1="124.4968" x2="497.8438" y2="146.0968" style="fill:none; stroke:#000; stroke-miterlimit:10; stroke-width:.75px;"/><line x1="472.6438" y1="135.2968" x2="504.1438" y2="135.2968" style="fill:none; stroke:#000; stroke-miterlimit:10; stroke-width:.75px;"/><line x1="472.6438" y1="142.0468" x2="504.1438" y2="140.3593" style="fill:none; stroke:#000; stroke-miterlimit:10; stroke-width:.75px;"/><line x1="472.6438" y1="128.5468" x2="504.1438" y2="130.2343" style="fill:none; stroke:#000; stroke-miterlimit:10; stroke-width:.75px;"/></g><polygon points="504.1438 145.4218 472.6438 148.7968 472.6438 121.7968 504.1438 125.1718 504.1438 145.4218" style="fill:none; stroke:#000; stroke-miterlimit:10; stroke-width:.75px;"/><circle cx="486" cy="135" r="27" style="fill:none; stroke:#000; stroke-miterlimit:10; stroke-width:1.5px;"/><line x1="81" y1="54" x2="243" y2="94.5" style="fill:none; stroke:#000; stroke-miterlimit:10;"/><line x1="243" y1="94.5" x2="81" y2="135" style="fill:none; stroke:#000; stroke-miterlimit:10;"/><line x1="243" y1="175.5" x2="81" y2="135" style="fill:none; stroke:#000; stroke-miterlimit:10;"/><line x1="81" y1="216" x2="243" y2="175.5" style="fill:none; stroke:#000; stroke-miterlimit:10;"/><line x1="81" y1="54" x2="243" y2="175.5" style="fill:none; stroke:#000; stroke-miterlimit:10;"/><line x1="243" y1="94.5" x2="81" y2="216" style="fill:none; stroke:#000; stroke-miterlimit:10;"/><line x1="297" y1="175.5" x2="459" y2="135" style="fill:none; stroke:#000; stroke-miterlimit:10;"/><line x1="297" y1="94.5" x2="459" y2="135" style="fill:none; stroke:#000; stroke-miterlimit:10;"/></svg>