<?xml version="1.0" encoding="UTF-8"?>
<svg id="uuid-8110def1-3c70-498a-b109-3993ba30ca2b" data-name="Layer 1" xmlns="http://www.w3.org/2000/svg" viewBox="0 0 370.8262 183.6807">
  <path d="m23.4131,73c6.0654,0,11,4.9346,11,11s-4.9346,11-11,11-11-4.9346-11-11,4.9346-11,11-11m0-1c-6.6274,0-12,5.3726-12,12s5.3726,12,12,12,12-5.3726,12-12-5.3726-12-12-12h0Z"/>
  <path d="m23.4131,37c6.0654,0,11,4.9346,11,11s-4.9346,11-11,11-11-4.9346-11-11,4.9346-11,11-11m0-1c-6.6274,0-12,5.3726-12,12s5.3726,12,12,12,12-5.3726,12-12-5.3726-12-12-12h0Z"/>
  <path d="m23.4131,1c6.0654,0,11,4.9346,11,11s-4.9346,11-11,11-11-4.9346-11-11S17.3477,1,23.4131,1m0-1c-6.6274,0-12,5.3726-12,12s5.3726,12,12,12,12-5.3726,12-12S30.0405,0,23.4131,0h0Z"/>
  <path d="m23.4131,109c6.0654,0,11,4.9346,11,11s-4.9346,11-11,11-11-4.9346-11-11,4.9346-11,11-11m0-1c-6.6274,0-12,5.3726-12,12s5.3726,12,12,12,12-5.3726,12-12-5.3726-12-12-12h0Z"/>
  <path d="m23.4131,145c6.0654,0,11,4.9346,11,11s-4.9346,11-11,11-11-4.9346-11-11,4.9346-11,11-11m0-1c-6.6274,0-12,5.3726-12,12s5.3726,12,12,12,12-5.3726,12-12-5.3726-12-12-12h0Z"/>
  <path d="m131.4131,73c6.0654,0,11,4.9346,11,11s-4.9346,11-11,11-11-4.9346-11-11,4.9346-11,11-11m0-1c-6.6274,0-12,5.3726-12,12s5.3726,12,12,12,12-5.3726,12-12-5.3726-12-12-12h0Z"/>
  <path d="m131.4131,37c6.0654,0,11,4.9346,11,11s-4.9346,11-11,11-11-4.9346-11-11,4.9346-11,11-11m0-1c-6.6274,0-12,5.3726-12,12s5.3726,12,12,12,12-5.3726,12-12-5.3726-12-12-12h0Z"/>
  <path d="m131.4131,1c6.0654,0,11,4.9346,11,11s-4.9346,11-11,11-11-4.9346-11-11,4.9346-11,11-11m0-1c-6.6274,0-12,5.3726-12,12s5.3726,12,12,12,12-5.3726,12-12-5.3726-12-12-12h0Z"/>
  <path d="m131.4131,109c6.0654,0,11,4.9346,11,11s-4.9346,11-11,11-11-4.9346-11-11,4.9346-11,11-11m0-1c-6.6274,0-12,5.3726-12,12s5.3726,12,12,12,12-5.3726,12-12-5.3726-12-12-12h0Z"/>
  <path d="m131.4131,145c6.0654,0,11,4.9346,11,11s-4.9346,11-11,11-11-4.9346-11-11,4.9346-11,11-11m0-1c-6.6274,0-12,5.3726-12,12s5.3726,12,12,12,12-5.3726,12-12-5.3726-12-12-12h0Z"/>
  <path d="m239.4131,55c6.0654,0,11,4.9346,11,11s-4.9346,11-11,11-11-4.9346-11-11,4.9346-11,11-11m0-1c-6.6274,0-12,5.3726-12,12s5.3726,12,12,12,12-5.3726,12-12-5.3726-12-12-12h0Z"/>
  <path d="m239.4131,19c6.0654,0,11,4.9346,11,11s-4.9346,11-11,11-11-4.9346-11-11,4.9346-11,11-11m0-1c-6.6274,0-12,5.3726-12,12s5.3726,12,12,12,12-5.3726,12-12-5.3726-12-12-12h0Z"/>
  <path d="m239.4131,91c6.0654,0,11,4.9346,11,11s-4.9346,11-11,11-11-4.9346-11-11,4.9346-11,11-11m0-1c-6.6274,0-12,5.3726-12,12s5.3726,12,12,12,12-5.3726,12-12-5.3726-12-12-12h0Z"/>
  <path d="m239.4131,127c6.0654,0,11,4.9346,11,11s-4.9346,11-11,11-11-4.9346-11-11,4.9346-11,11-11m0-1c-6.6274,0-12,5.3726-12,12s5.3726,12,12,12,12-5.3726,12-12-5.3726-12-12-12h0Z"/>
  <path d="m347.4131,46c6.0654,0,11,4.9346,11,11s-4.9346,11-11,11-11-4.9346-11-11,4.9346-11,11-11m0-1c-6.6274,0-12,5.3726-12,12s5.3726,12,12,12,12-5.3726,12-12-5.3726-12-12-12h0Z"/>
  <path d="m347.4131,100c6.0654,0,11,4.9346,11,11s-4.9346,11-11,11-11-4.9346-11-11,4.9346-11,11-11m0-1c-6.6274,0-12,5.3726-12,12s5.3726,12,12,12,12-5.3726,12-12-5.3726-12-12-12h0Z"/>
  <line x1="35.4131" y1="12" x2="119.4131" y2="12" style="fill: none; stroke: #000; stroke-miterlimit: 10;"/>
  <line x1="119.4131" y1="48" x2="35.4131" y2="12" style="fill: none; stroke: #000; stroke-miterlimit: 10;"/>
  <line x1="119.4131" y1="84" x2="35.4131" y2="12" style="fill: none; stroke: #000; stroke-miterlimit: 10;"/>
  <line x1="119.4131" y1="120" x2="35.4131" y2="12" style="fill: none; stroke: #000; stroke-miterlimit: 10;"/>
  <line x1="119.4131" y1="156" x2="35.4131" y2="12" style="fill: none; stroke: #000; stroke-miterlimit: 10;"/>
  <line x1="35.4131" y1="48" x2="119.4131" y2="12" style="fill: none; stroke: #000; stroke-miterlimit: 10;"/>
  <line x1="119.4131" y1="48" x2="35.4131" y2="48" style="fill: none; stroke: #000; stroke-miterlimit: 10;"/>
  <line x1="119.4131" y1="84" x2="35.4131" y2="48" style="fill: none; stroke: #000; stroke-miterlimit: 10;"/>
  <line x1="119.4131" y1="120" x2="35.4131" y2="48" style="fill: none; stroke: #000; stroke-miterlimit: 10;"/>
  <line x1="119.4131" y1="156" x2="35.4131" y2="48" style="fill: none; stroke: #000; stroke-miterlimit: 10;"/>
  <line x1="35.4131" y1="84" x2="119.4131" y2="12" style="fill: none; stroke: #000; stroke-miterlimit: 10;"/>
  <line x1="119.4131" y1="48" x2="35.4131" y2="84" style="fill: none; stroke: #000; stroke-miterlimit: 10;"/>
  <line x1="119.4131" y1="84" x2="35.4131" y2="84" style="fill: none; stroke: #000; stroke-miterlimit: 10;"/>
  <line x1="119.4131" y1="120" x2="35.4131" y2="84" style="fill: none; stroke: #000; stroke-miterlimit: 10;"/>
  <line x1="119.4131" y1="156" x2="35.4131" y2="84" style="fill: none; stroke: #000; stroke-miterlimit: 10;"/>
  <line x1="35.4131" y1="120" x2="119.4131" y2="12" style="fill: none; stroke: #000; stroke-miterlimit: 10;"/>
  <line x1="119.4131" y1="48" x2="35.4131" y2="120" style="fill: none; stroke: #000; stroke-miterlimit: 10;"/>
  <line x1="119.4131" y1="84" x2="35.4131" y2="120" style="fill: none; stroke: #000; stroke-miterlimit: 10;"/>
  <line x1="119.4131" y1="120" x2="35.4131" y2="120" style="fill: none; stroke: #000; stroke-miterlimit: 10;"/>
  <line x1="119.4131" y1="156" x2="35.4131" y2="120" style="fill: none; stroke: #000; stroke-miterlimit: 10;"/>
  <line x1="35.4131" y1="156" x2="119.4131" y2="12" style="fill: none; stroke: #000; stroke-miterlimit: 10;"/>
  <line x1="119.4131" y1="48" x2="35.4131" y2="156" style="fill: none; stroke: #000; stroke-miterlimit: 10;"/>
  <line x1="119.4131" y1="84" x2="35.4131" y2="156" style="fill: none; stroke: #000; stroke-miterlimit: 10;"/>
  <line x1="119.4131" y1="120" x2="35.4131" y2="156" style="fill: none; stroke: #000; stroke-miterlimit: 10;"/>
  <line x1="119.4131" y1="156" x2="35.4131" y2="156" style="fill: none; stroke: #000; stroke-miterlimit: 10;"/>
  <line x1="143.4131" y1="12" x2="227.4131" y2="30" style="fill: none; stroke: #000; stroke-miterlimit: 10;"/>
  <line x1="227.4131" y1="66" x2="143.4131" y2="12" style="fill: none; stroke: #000; stroke-miterlimit: 10;"/>
  <line x1="227.4131" y1="102" x2="143.4131" y2="12" style="fill: none; stroke: #000; stroke-miterlimit: 10;"/>
  <line x1="227.4131" y1="138" x2="143.4131" y2="12" style="fill: none; stroke: #000; stroke-miterlimit: 10;"/>
  <line x1="143.4131" y1="48" x2="227.4131" y2="30" style="fill: none; stroke: #000; stroke-miterlimit: 10;"/>
  <line x1="227.4131" y1="66" x2="143.4131" y2="48" style="fill: none; stroke: #000; stroke-miterlimit: 10;"/>
  <line x1="227.4131" y1="102" x2="143.4131" y2="48" style="fill: none; stroke: #000; stroke-miterlimit: 10;"/>
  <line x1="227.4131" y1="138" x2="143.4131" y2="48" style="fill: none; stroke: #000; stroke-miterlimit: 10;"/>
  <line x1="143.4131" y1="84" x2="227.4131" y2="30" style="fill: none; stroke: #000; stroke-miterlimit: 10;"/>
  <line x1="227.4131" y1="66" x2="143.4131" y2="84" style="fill: none; stroke: #000; stroke-miterlimit: 10;"/>
  <line x1="227.4131" y1="102" x2="143.4131" y2="84" style="fill: none; stroke: #000; stroke-miterlimit: 10;"/>
  <line x1="227.4131" y1="138" x2="143.4131" y2="84" style="fill: none; stroke: #000; stroke-miterlimit: 10;"/>
  <line x1="143.4131" y1="120" x2="227.4131" y2="30" style="fill: none; stroke: #000; stroke-miterlimit: 10;"/>
  <line x1="227.4131" y1="66" x2="143.4131" y2="120" style="fill: none; stroke: #000; stroke-miterlimit: 10;"/>
  <line x1="227.4131" y1="102" x2="143.4131" y2="120" style="fill: none; stroke: #000; stroke-miterlimit: 10;"/>
  <line x1="227.4131" y1="138" x2="143.4131" y2="120" style="fill: none; stroke: #000; stroke-miterlimit: 10;"/>
  <line x1="143.4131" y1="156" x2="227.4131" y2="30" style="fill: none; stroke: #000; stroke-miterlimit: 10;"/>
  <line x1="227.4131" y1="66" x2="143.4131" y2="156" style="fill: none; stroke: #000; stroke-miterlimit: 10;"/>
  <line x1="227.4131" y1="102" x2="143.4131" y2="156" style="fill: none; stroke: #000; stroke-miterlimit: 10;"/>
  <line x1="227.4131" y1="138" x2="143.4131" y2="156" style="fill: none; stroke: #000; stroke-miterlimit: 10;"/>
  <line x1="251.4131" y1="30" x2="335.4131" y2="57" style="fill: none; stroke: #000; stroke-miterlimit: 10;"/>
  <line x1="335.4131" y1="111" x2="251.4131" y2="30" style="fill: none; stroke: #000; stroke-miterlimit: 10;"/>
  <line x1="251.4131" y1="66" x2="335.4131" y2="57" style="fill: none; stroke: #000; stroke-miterlimit: 10;"/>
  <line x1="335.4131" y1="111" x2="251.4131" y2="66" style="fill: none; stroke: #000; stroke-miterlimit: 10;"/>
  <line x1="251.4131" y1="102" x2="335.4131" y2="57" style="fill: none; stroke: #000; stroke-miterlimit: 10;"/>
  <line x1="335.4131" y1="111" x2="251.4131" y2="102" style="fill: none; stroke: #000; stroke-miterlimit: 10;"/>
  <line x1="251.4131" y1="138" x2="335.4131" y2="57" style="fill: none; stroke: #000; stroke-miterlimit: 10;"/>
  <line x1="335.4131" y1="111" x2="251.4131" y2="138" style="fill: none; stroke: #000; stroke-miterlimit: 10;"/>
  <text transform="translate(0 180.3847)" style="font-family: ArialUnicodeMS, &apos;Arial Unicode MS&apos;; font-size: 10px;"><tspan x="0" y="0">Input layer</tspan></text>
  <text transform="translate(99.1716 180.3846)" style="font-family: ArialUnicodeMS, &apos;Arial Unicode MS&apos;; font-size: 10px;"><tspan x="0" y="0">Hidden layer 1</tspan></text>
  <text transform="translate(207.1719 180.3845)" style="font-family: ArialUnicodeMS, &apos;Arial Unicode MS&apos;; font-size: 10px;"><tspan x="0" y="0">Hidden layer 2</tspan></text>
  <text transform="translate(323.9998 180.3846)" style="font-family: ArialUnicodeMS, &apos;Arial Unicode MS&apos;; font-size: 10px;"><tspan x="0" y="0">Input layer</tspan></text>
</svg>