<?xml version="1.0" encoding="UTF-8"?><svg id="uuid-da834e4c-6cf7-4144-ba95-ffb248b5e6c1" xmlns="http://www.w3.org/2000/svg" viewBox="0 0 540 306"><rect width="540" height="306" style="fill:#fff; stroke-width:0px;"/><circle cx="36" cy="36" r="18" style="fill:none; stroke:#000; stroke-miterlimit:10;"/><text transform="translate(12.5869 288.7045)" style="font-family:ArialUnicodeMS, &apos;Arial Unicode MS&apos;; font-size:10px;"><tspan x="0" y="0">Input layer</tspan></text><text transform="translate(159.7586 288.7039)" style="font-family:ArialUnicodeMS, &apos;Arial Unicode MS&apos;; font-size:10px;"><tspan x="0" y="0">Hidden layer 1</tspan></text><text transform="translate(315.7588 288.7039)" style="font-family:ArialUnicodeMS, &apos;Arial Unicode MS&apos;; font-size:10px;"><tspan x="0" y="0">Hidden layer 2</tspan></text><text transform="translate(480.5867 288.7039)" style="font-family:ArialUnicodeMS, &apos;Arial Unicode MS&apos;; font-size:10px;"><tspan x="0" y="0">Input layer</tspan></text><circle cx="36" cy="90" r="18" style="fill:none; stroke:#000; stroke-miterlimit:10;"/><circle cx="36" cy="144" r="18" style="fill:none; stroke:#000; stroke-miterlimit:10;"/><circle cx="36" cy="198" r="18" style="fill:none; stroke:#000; stroke-miterlimit:10;"/><circle cx="36" cy="252" r="18" style="fill:none; stroke:#000; stroke-miterlimit:10;"/><circle cx="192" cy="36" r="18" style="fill:none; stroke:#000; stroke-miterlimit:10;"/><circle cx="192" cy="90" r="18" style="fill:none; stroke:#000; stroke-miterlimit:10;"/><circle cx="192" cy="144" r="18" style="fill:none; stroke:#000; stroke-miterlimit:10;"/><circle cx="192" cy="198" r="18" style="fill:none; stroke:#000; stroke-miterlimit:10;"/><circle cx="192" cy="252" r="18" style="fill:none; stroke:#000; stroke-miterlimit:10;"/><circle cx="348" cy="63" r="18" style="fill:none; stroke:#000; stroke-miterlimit:10;"/><circle cx="348" cy="117" r="18" style="fill:none; stroke:#000; stroke-miterlimit:10;"/><circle cx="348" cy="171" r="18" style="fill:none; stroke:#000; stroke-miterlimit:10;"/><circle cx="348" cy="225" r="18" style="fill:none; stroke:#000; stroke-miterlimit:10;"/><circle cx="504" cy="108" r="18" style="fill:none; stroke:#000; stroke-miterlimit:10;"/><circle cx="504" cy="180" r="18" style="fill:none; stroke:#000; stroke-miterlimit:10;"/><line x1="54" y1="36" x2="174" y2="36" style="fill:none; stroke:#000; stroke-miterlimit:10;"/><line x1="54" y1="36" x2="174" y2="90" style="fill:none; stroke:#000; stroke-miterlimit:10;"/><line x1="54" y1="36" x2="174" y2="144" style="fill:none; stroke:#000; stroke-miterlimit:10;"/><line x1="54" y1="36" x2="174" y2="198" style="fill:none; stroke:#000; stroke-miterlimit:10;"/><line x1="54" y1="36" x2="174" y2="252" style="fill:none; stroke:#000; stroke-miterlimit:10;"/><line x1="54" y1="90" x2="174" y2="36" style="fill:none; stroke:#000; stroke-miterlimit:10;"/><line x1="54" y1="90" x2="174" y2="90" style="fill:none; stroke:#000; stroke-miterlimit:10;"/><line x1="54" y1="90" x2="174" y2="144" style="fill:none; stroke:#000; stroke-miterlimit:10;"/><line x1="54" y1="90" x2="174" y2="198" style="fill:none; stroke:#000; stroke-miterlimit:10;"/><line x1="54" y1="90" x2="174" y2="252" style="fill:none; stroke:#000; stroke-miterlimit:10;"/><line x1="54" y1="144" x2="174" y2="36" style="fill:none; stroke:#000; stroke-miterlimit:10;"/><line x1="54" y1="144" x2="174" y2="90" style="fill:none; stroke:#000; stroke-miterlimit:10;"/><line x1="54" y1="144" x2="174" y2="144" style="fill:none; stroke:#000; stroke-miterlimit:10;"/><line x1="54" y1="144" x2="174" y2="198" style="fill:none; stroke:#000; stroke-miterlimit:10;"/><line x1="54" y1="144" x2="174" y2="252" style="fill:none; stroke:#000; stroke-miterlimit:10;"/><line x1="54" y1="198" x2="174" y2="36" style="fill:none; stroke:#000; stroke-miterlimit:10;"/><line x1="54" y1="198" x2="174" y2="90" style="fill:none; stroke:#000; stroke-miterlimit:10;"/><line x1="54" y1="198" x2="174" y2="144" style="fill:none; stroke:#000; stroke-miterlimit:10;"/><line x1="54" y1="198" x2="174" y2="198" style="fill:none; stroke:#000; stroke-miterlimit:10;"/><line x1="54" y1="198" x2="174" y2="252" style="fill:none; stroke:#000; stroke-miterlimit:10;"/><line x1="54" y1="252" x2="174" y2="36" style="fill:none; stroke:#000; stroke-miterlimit:10;"/><line x1="54" y1="252" x2="174" y2="90" style="fill:none; stroke:#000; stroke-miterlimit:10;"/><line x1="54" y1="252" x2="174" y2="144" style="fill:none; stroke:#000; stroke-miterlimit:10;"/><line x1="54" y1="252" x2="174" y2="198" style="fill:none; stroke:#000; stroke-miterlimit:10;"/><line x1="54" y1="252" x2="174" y2="252" style="fill:none; stroke:#000; stroke-miterlimit:10;"/><line x1="210" y1="36" x2="330" y2="63" style="fill:none; stroke:#000; stroke-miterlimit:10;"/><line x1="210" y1="36" x2="330" y2="117" style="fill:none; stroke:#000; stroke-miterlimit:10;"/><line x1="210" y1="36" x2="330" y2="171" style="fill:none; stroke:#000; stroke-miterlimit:10;"/><line x1="210" y1="36" x2="330" y2="225" style="fill:none; stroke:#000; stroke-miterlimit:10;"/><line x1="210" y1="90" x2="330" y2="63" style="fill:none; stroke:#000; stroke-miterlimit:10;"/><line x1="210" y1="90" x2="330" y2="117" style="fill:none; stroke:#000; stroke-miterlimit:10;"/><line x1="210" y1="90" x2="330" y2="171" style="fill:none; stroke:#000; stroke-miterlimit:10;"/><line x1="210" y1="90" x2="330" y2="225" style="fill:none; stroke:#000; stroke-miterlimit:10;"/><line x1="210" y1="144" x2="330" y2="63" style="fill:none; stroke:#000; stroke-miterlimit:10;"/><line x1="210" y1="144" x2="330" y2="117" style="fill:none; stroke:#000; stroke-miterlimit:10;"/><line x1="210" y1="144" x2="330" y2="171" style="fill:none; stroke:#000; stroke-miterlimit:10;"/><line x1="210" y1="144" x2="330" y2="225" style="fill:none; stroke:#000; stroke-miterlimit:10;"/><line x1="210" y1="198" x2="330" y2="63" style="fill:none; stroke:#000; stroke-miterlimit:10;"/><line x1="210" y1="198" x2="330" y2="117" style="fill:none; stroke:#000; stroke-miterlimit:10;"/><line x1="210" y1="198" x2="330" y2="171" style="fill:none; stroke:#000; stroke-miterlimit:10;"/><line x1="210" y1="198" x2="330" y2="225" style="fill:none; stroke:#000; stroke-miterlimit:10;"/><line x1="210" y1="252" x2="330" y2="63" style="fill:none; stroke:#000; stroke-miterlimit:10;"/><line x1="210" y1="252" x2="330" y2="117" style="fill:none; stroke:#000; stroke-miterlimit:10;"/><line x1="210" y1="252" x2="330" y2="171" style="fill:none; stroke:#000; stroke-miterlimit:10;"/><line x1="210" y1="252" x2="330" y2="225" style="fill:none; stroke:#000; stroke-miterlimit:10;"/><line x1="366" y1="63" x2="486" y2="108" style="fill:none; stroke:#000; stroke-miterlimit:10;"/><line x1="366" y1="63" x2="486" y2="180" style="fill:none; stroke:#000; stroke-miterlimit:10;"/><line x1="366" y1="116.9987" x2="486" y2="107.9983" style="fill:none; stroke:#000; stroke-miterlimit:10;"/><line x1="366" y1="117" x2="486" y2="180" style="fill:none; stroke:#000; stroke-miterlimit:10;"/><line x1="366" y1="171" x2="486" y2="108" style="fill:none; stroke:#000; stroke-miterlimit:10;"/><line x1="366" y1="171" x2="486" y2="180" style="fill:none; stroke:#000; stroke-miterlimit:10;"/><line x1="366" y1="225" x2="486" y2="108" style="fill:none; stroke:#000; stroke-miterlimit:10;"/><line x1="366" y1="225" x2="486" y2="180" style="fill:none; stroke:#000; stroke-miterlimit:10;"/></svg>