<?xml version="1.0" encoding="UTF-8"?><svg id="uuid-6b252ee4-cbf1-4b8c-8214-1c9d10b2e6d8" xmlns="http://www.w3.org/2000/svg" xmlns:xlink="http://www.w3.org/1999/xlink" viewBox="0 0 480 360"><defs><clipPath id="uuid-4dc02356-cdcc-4a84-aa0f-042287ec9eae"><rect x="45" y="54" width="261" height="270" style="fill:none; stroke-width:0px;"/></clipPath><clipPath id="uuid-07bf4b54-21d4-4f47-9349-8fe5c45c5ec7"><rect x="306" y="108" width="81" height="144" style="fill:none; stroke-width:0px;"/></clipPath></defs><rect width="480" height="360" style="fill:#fff; stroke-width:0px;"/><polygon points="90.5294 98.4706 44.4194 101.0323 44.4194 57.4839 90.5294 58.7647 90.5294 98.4706" style="fill:#ed1c24; opacity:.25; stroke-width:0px;"/><polygon points="117 109.5 27 117 27 27 117 34.5 117 109.5" style="fill:none; stroke:#000; stroke-miterlimit:10; stroke-width:1.5px;"/><polygon points="44.4194 42.9677 27 42 27 27 44.4194 28.4516 44.4194 42.9677" style="fill:none; stroke:#000; stroke-miterlimit:10; stroke-width:.75px;"/><polygon points="44.4194 57.4839 27 57 27 42 44.4194 42.9677 44.4194 57.4839" style="fill:none; stroke:#000; stroke-miterlimit:10; stroke-width:.75px;"/><polygon points="60.75 43.875 44.4194 42.9677 44.4194 28.4516 60.75 29.8125 60.75 43.875" style="fill:none; stroke:#000; stroke-miterlimit:10; stroke-width:.75px;"/><polygon points="60.75 57.9375 44.4194 57.4839 44.4194 42.9677 60.75 43.875 60.75 57.9375" style="fill:none; stroke:#000; stroke-miterlimit:10; stroke-width:.75px;"/><polygon points="76.0909 44.7273 60.75 43.875 60.75 29.8125 76.0909 31.0909 76.0909 44.7273" style="fill:none; stroke:#000; stroke-miterlimit:10; stroke-width:.75px;"/><polygon points="76.0909 58.3636 60.75 57.9375 60.75 43.875 76.0909 44.7273 76.0909 58.3636" style="fill:none; stroke:#000; stroke-miterlimit:10; stroke-width:.75px;"/><polygon points="90.5294 45.5294 76.0909 44.7273 76.0909 31.0909 90.5294 32.2941 90.5294 45.5294" style="fill:none; stroke:#000; stroke-miterlimit:10; stroke-width:.75px;"/><polygon points="90.5294 58.7647 76.0909 58.3636 76.0909 44.7273 90.5294 45.5294 90.5294 58.7647" style="fill:none; stroke:#000; stroke-miterlimit:10; stroke-width:.75px;"/><polygon points="104.1429 46.2857 90.5294 45.5294 90.5294 32.2941 104.1429 33.4286 104.1429 46.2857" style="fill:none; stroke:#000; stroke-miterlimit:10; stroke-width:.75px;"/><polygon points="117 47 104.1429 46.2857 104.1429 33.4286 117 34.5 117 47" style="fill:none; stroke:#000; stroke-miterlimit:10; stroke-width:.75px;"/><polygon points="104.1429 59.1429 90.5294 58.7647 90.5294 45.5294 104.1429 46.2857 104.1429 59.1429" style="fill:none; stroke:#000; stroke-miterlimit:10; stroke-width:.75px;"/><polygon points="117 59.5 104.1429 59.1429 104.1429 46.2857 117 47 117 59.5" style="fill:none; stroke:#000; stroke-miterlimit:10; stroke-width:.75px;"/><polygon points="44.4194 72 27 72 27 57 44.4194 57.4839 44.4194 72" style="fill:none; stroke:#000; stroke-miterlimit:10; stroke-width:.75px;"/><polygon points="60.75 72 44.4194 72 44.4194 57.4839 60.75 57.9375 60.75 72" style="fill:none; stroke:#000; stroke-miterlimit:10; stroke-width:.75px;"/><polygon points="76.0909 72 60.75 72 60.75 57.9375 76.0909 58.3636 76.0909 72" style="fill:none; stroke:#000; stroke-miterlimit:10; stroke-width:.75px;"/><polygon points="90.5294 72 76.0909 72 76.0909 58.3636 90.5294 58.7647 90.5294 72" style="fill:none; stroke:#000; stroke-miterlimit:10; stroke-width:.75px;"/><polygon points="104.1429 72 90.5294 72 90.5294 58.7647 104.1429 59.1429 104.1429 72" style="fill:none; stroke:#000; stroke-miterlimit:10; stroke-width:.75px;"/><polygon points="117 72 104.1429 72 104.1429 59.1429 117 59.5 117 72" style="fill:none; stroke:#000; stroke-miterlimit:10; stroke-width:.75px;"/><polygon points="44.4194 86.5161 27 87 27 72 44.4194 72 44.4194 86.5161" style="fill:none; stroke:#000; stroke-miterlimit:10; stroke-width:.75px;"/><polygon points="60.75 86.0625 44.4194 86.5161 44.4194 72 60.75 72 60.75 86.0625" style="fill:none; stroke:#000; stroke-miterlimit:10; stroke-width:.75px;"/><polygon points="76.0909 85.6364 60.75 86.0625 60.75 72 76.0909 72 76.0909 85.6364" style="fill:none; stroke:#000; stroke-miterlimit:10; stroke-width:.75px;"/><polygon points="90.5294 85.2353 76.0909 85.6364 76.0909 72 90.5294 72 90.5294 85.2353" style="fill:none; stroke:#000; stroke-miterlimit:10; stroke-width:.75px;"/><polygon points="104.1429 84.8571 90.5294 85.2353 90.5294 72 104.1429 72 104.1429 84.8571" style="fill:none; stroke:#000; stroke-miterlimit:10; stroke-width:.75px;"/><polygon points="117 84.5 104.1429 84.8571 104.1429 72 117 72 117 84.5" style="fill:none; stroke:#000; stroke-miterlimit:10; stroke-width:.75px;"/><polygon points="44.4194 101.0323 27 102 27 87 44.4194 86.5161 44.4194 101.0323" style="fill:none; stroke:#000; stroke-miterlimit:10; stroke-width:.75px;"/><polygon points="60.75 100.125 44.4194 101.0323 44.4194 86.5161 60.75 86.0625 60.75 100.125" style="fill:none; stroke:#000; stroke-miterlimit:10; stroke-width:.75px;"/><polygon points="76.0909 99.2727 60.75 100.125 60.75 86.0625 76.0909 85.6364 76.0909 99.2727" style="fill:none; stroke:#000; stroke-miterlimit:10; stroke-width:.75px;"/><polygon points="90.5294 98.4706 76.0909 99.2727 76.0909 85.6364 90.5294 85.2353 90.5294 98.4706" style="fill:none; stroke:#000; stroke-miterlimit:10; stroke-width:.75px;"/><polygon points="104.1429 97.7143 90.5294 98.4706 90.5294 85.2353 104.1429 84.8571 104.1429 97.7143" style="fill:none; stroke:#000; stroke-miterlimit:10; stroke-width:.75px;"/><polygon points="117 97 104.1429 97.7143 104.1429 84.8571 117 84.5 117 97" style="fill:none; stroke:#000; stroke-miterlimit:10; stroke-width:.75px;"/><polygon points="44.4194 115.5484 27 117 27 102 44.4194 101.0323 44.4194 115.5484" style="fill:none; stroke:#000; stroke-miterlimit:10; stroke-width:.75px;"/><polygon points="60.75 114.1875 44.4194 115.5484 44.4194 101.0323 60.75 100.125 60.75 114.1875" style="fill:none; stroke:#000; stroke-miterlimit:10; stroke-width:.75px;"/><polygon points="76.0909 112.9091 60.75 114.1875 60.75 100.125 76.0909 99.2727 76.0909 112.9091" style="fill:none; stroke:#000; stroke-miterlimit:10; stroke-width:.75px;"/><polygon points="90.5294 111.7059 76.0909 112.9091 76.0909 99.2727 90.5294 98.4706 90.5294 111.7059" style="fill:none; stroke:#000; stroke-miterlimit:10; stroke-width:.75px;"/><polygon points="104.1429 110.5714 90.5294 111.7059 90.5294 98.4706 104.1429 97.7143 104.1429 110.5714" style="fill:none; stroke:#000; stroke-miterlimit:10; stroke-width:.75px;"/><polygon points="117 109.5 104.1429 110.5714 104.1429 97.7143 117 97 117 109.5" style="fill:none; stroke:#000; stroke-miterlimit:10; stroke-width:.75px;"/><polygon points="90.5294 206.4706 44.4194 209.0323 44.4194 165.4839 90.5294 166.7647 90.5294 206.4706" style="fill:#ed1c24; opacity:.25; stroke-width:0px;"/><polygon points="117 217.5 27 225 27 135 117 142.5 117 217.5" style="fill:none; stroke:#000; stroke-miterlimit:10; stroke-width:1.5px;"/><polygon points="44.4194 150.9677 27 150 27 135 44.4194 136.4516 44.4194 150.9677" style="fill:none; stroke:#000; stroke-miterlimit:10; stroke-width:.75px;"/><polygon points="44.4194 165.4839 27 165 27 150 44.4194 150.9677 44.4194 165.4839" style="fill:none; stroke:#000; stroke-miterlimit:10; stroke-width:.75px;"/><polygon points="60.75 151.875 44.4194 150.9677 44.4194 136.4516 60.75 137.8125 60.75 151.875" style="fill:none; stroke:#000; stroke-miterlimit:10; stroke-width:.75px;"/><polygon points="60.75 165.9375 44.4194 165.4839 44.4194 150.9677 60.75 151.875 60.75 165.9375" style="fill:none; stroke:#000; stroke-miterlimit:10; stroke-width:.75px;"/><polygon points="76.0909 152.7273 60.75 151.875 60.75 137.8125 76.0909 139.0909 76.0909 152.7273" style="fill:none; stroke:#000; stroke-miterlimit:10; stroke-width:.75px;"/><polygon points="76.0909 166.3636 60.75 165.9375 60.75 151.875 76.0909 152.7273 76.0909 166.3636" style="fill:none; stroke:#000; stroke-miterlimit:10; stroke-width:.75px;"/><polygon points="90.5294 153.5294 76.0909 152.7273 76.0909 139.0909 90.5294 140.2941 90.5294 153.5294" style="fill:none; stroke:#000; stroke-miterlimit:10; stroke-width:.75px;"/><polygon points="90.5294 166.7647 76.0909 166.3636 76.0909 152.7273 90.5294 153.5294 90.5294 166.7647" style="fill:none; stroke:#000; stroke-miterlimit:10; stroke-width:.75px;"/><polygon points="104.1429 154.2857 90.5294 153.5294 90.5294 140.2941 104.1429 141.4286 104.1429 154.2857" style="fill:none; stroke:#000; stroke-miterlimit:10; stroke-width:.75px;"/><polygon points="117 155 104.1429 154.2857 104.1429 141.4286 117 142.5 117 155" style="fill:none; stroke:#000; stroke-miterlimit:10; stroke-width:.75px;"/><polygon points="104.1429 167.1429 90.5294 166.7647 90.5294 153.5294 104.1429 154.2857 104.1429 167.1429" style="fill:none; stroke:#000; stroke-miterlimit:10; stroke-width:.75px;"/><polygon points="117 167.5 104.1429 167.1429 104.1429 154.2857 117 155 117 167.5" style="fill:none; stroke:#000; stroke-miterlimit:10; stroke-width:.75px;"/><polygon points="44.4194 180 27 180 27 165 44.4194 165.4839 44.4194 180" style="fill:none; stroke:#000; stroke-miterlimit:10; stroke-width:.75px;"/><polygon points="60.75 180 44.4194 180 44.4194 165.4839 60.75 165.9375 60.75 180" style="fill:none; stroke:#000; stroke-miterlimit:10; stroke-width:.75px;"/><polygon points="76.0909 180 60.75 180 60.75 165.9375 76.0909 166.3636 76.0909 180" style="fill:none; stroke:#000; stroke-miterlimit:10; stroke-width:.75px;"/><polygon points="90.5294 180 76.0909 180 76.0909 166.3636 90.5294 166.7647 90.5294 180" style="fill:none; stroke:#000; stroke-miterlimit:10; stroke-width:.75px;"/><polygon points="104.1429 180 90.5294 180 90.5294 166.7647 104.1429 167.1429 104.1429 180" style="fill:none; stroke:#000; stroke-miterlimit:10; stroke-width:.75px;"/><polygon points="117 180 104.1429 180 104.1429 167.1429 117 167.5 117 180" style="fill:none; stroke:#000; stroke-miterlimit:10; stroke-width:.75px;"/><polygon points="44.4194 194.5161 27 195 27 180 44.4194 180 44.4194 194.5161" style="fill:none; stroke:#000; stroke-miterlimit:10; stroke-width:.75px;"/><polygon points="60.75 194.0625 44.4194 194.5161 44.4194 180 60.75 180 60.75 194.0625" style="fill:none; stroke:#000; stroke-miterlimit:10; stroke-width:.75px;"/><polygon points="76.0909 193.6364 60.75 194.0625 60.75 180 76.0909 180 76.0909 193.6364" style="fill:none; stroke:#000; stroke-miterlimit:10; stroke-width:.75px;"/><polygon points="90.5294 193.2353 76.0909 193.6364 76.0909 180 90.5294 180 90.5294 193.2353" style="fill:none; stroke:#000; stroke-miterlimit:10; stroke-width:.75px;"/><polygon points="104.1429 192.8571 90.5294 193.2353 90.5294 180 104.1429 180 104.1429 192.8571" style="fill:none; stroke:#000; stroke-miterlimit:10; stroke-width:.75px;"/><polygon points="117 192.5 104.1429 192.8571 104.1429 180 117 180 117 192.5" style="fill:none; stroke:#000; stroke-miterlimit:10; stroke-width:.75px;"/><polygon points="44.4194 209.0323 27 210 27 195 44.4194 194.5161 44.4194 209.0323" style="fill:none; stroke:#000; stroke-miterlimit:10; stroke-width:.75px;"/><polygon points="60.75 208.125 44.4194 209.0323 44.4194 194.5161 60.75 194.0625 60.75 208.125" style="fill:none; stroke:#000; stroke-miterlimit:10; stroke-width:.75px;"/><polygon points="76.0909 207.2727 60.75 208.125 60.75 194.0625 76.0909 193.6364 76.0909 207.2727" style="fill:none; stroke:#000; stroke-miterlimit:10; stroke-width:.75px;"/><polygon points="90.5294 206.4706 76.0909 207.2727 76.0909 193.6364 90.5294 193.2353 90.5294 206.4706" style="fill:none; stroke:#000; stroke-miterlimit:10; stroke-width:.75px;"/><polygon points="104.1429 205.7143 90.5294 206.4706 90.5294 193.2353 104.1429 192.8571 104.1429 205.7143" style="fill:none; stroke:#000; stroke-miterlimit:10; stroke-width:.75px;"/><polygon points="117 205 104.1429 205.7143 104.1429 192.8571 117 192.5 117 205" style="fill:none; stroke:#000; stroke-miterlimit:10; stroke-width:.75px;"/><polygon points="44.4194 223.5484 27 225 27 210 44.4194 209.0323 44.4194 223.5484" style="fill:none; stroke:#000; stroke-miterlimit:10; stroke-width:.75px;"/><polygon points="60.75 222.1875 44.4194 223.5484 44.4194 209.0323 60.75 208.125 60.75 222.1875" style="fill:none; stroke:#000; stroke-miterlimit:10; stroke-width:.75px;"/><polygon points="76.0909 220.9091 60.75 222.1875 60.75 208.125 76.0909 207.2727 76.0909 220.9091" style="fill:none; stroke:#000; stroke-miterlimit:10; stroke-width:.75px;"/><polygon points="90.5294 219.7059 76.0909 220.9091 76.0909 207.2727 90.5294 206.4706 90.5294 219.7059" style="fill:none; stroke:#000; stroke-miterlimit:10; stroke-width:.75px;"/><polygon points="104.1429 218.5714 90.5294 219.7059 90.5294 206.4706 104.1429 205.7143 104.1429 218.5714" style="fill:none; stroke:#000; stroke-miterlimit:10; stroke-width:.75px;"/><polygon points="117 217.5 104.1429 218.5714 104.1429 205.7143 117 205 117 217.5" style="fill:none; stroke:#000; stroke-miterlimit:10; stroke-width:.75px;"/><polygon points="90.5294 314.4706 44.4194 317.0323 44.4194 273.4839 90.5294 274.7647 90.5294 314.4706" style="fill:#ed1c24; opacity:.25; stroke-width:0px;"/><polygon points="117 325.5 27 333 27 243 117 250.5 117 325.5" style="fill:none; stroke:#000; stroke-miterlimit:10; stroke-width:1.5px;"/><polygon points="44.4194 258.9677 27 258 27 243 44.4194 244.4516 44.4194 258.9677" style="fill:none; stroke:#000; stroke-miterlimit:10; stroke-width:.75px;"/><polygon points="44.4194 273.4839 27 273 27 258 44.4194 258.9677 44.4194 273.4839" style="fill:none; stroke:#000; stroke-miterlimit:10; stroke-width:.75px;"/><polygon points="60.75 259.875 44.4194 258.9677 44.4194 244.4516 60.75 245.8125 60.75 259.875" style="fill:none; stroke:#000; stroke-miterlimit:10; stroke-width:.75px;"/><polygon points="60.75 273.9375 44.4194 273.4839 44.4194 258.9677 60.75 259.875 60.75 273.9375" style="fill:none; stroke:#000; stroke-miterlimit:10; stroke-width:.75px;"/><polygon points="76.0909 260.7273 60.75 259.875 60.75 245.8125 76.0909 247.0909 76.0909 260.7273" style="fill:none; stroke:#000; stroke-miterlimit:10; stroke-width:.75px;"/><polygon points="76.0909 274.3636 60.75 273.9375 60.75 259.875 76.0909 260.7273 76.0909 274.3636" style="fill:none; stroke:#000; stroke-miterlimit:10; stroke-width:.75px;"/><polygon points="90.5294 261.5294 76.0909 260.7273 76.0909 247.0909 90.5294 248.2941 90.5294 261.5294" style="fill:none; stroke:#000; stroke-miterlimit:10; stroke-width:.75px;"/><polygon points="90.5294 274.7647 76.0909 274.3636 76.0909 260.7273 90.5294 261.5294 90.5294 274.7647" style="fill:none; stroke:#000; stroke-miterlimit:10; stroke-width:.75px;"/><polygon points="104.1429 262.2857 90.5294 261.5294 90.5294 248.2941 104.1429 249.4286 104.1429 262.2857" style="fill:none; stroke:#000; stroke-miterlimit:10; stroke-width:.75px;"/><polygon points="117 263 104.1429 262.2857 104.1429 249.4286 117 250.5 117 263" style="fill:none; stroke:#000; stroke-miterlimit:10; stroke-width:.75px;"/><polygon points="104.1429 275.1429 90.5294 274.7647 90.5294 261.5294 104.1429 262.2857 104.1429 275.1429" style="fill:none; stroke:#000; stroke-miterlimit:10; stroke-width:.75px;"/><polygon points="117 275.5 104.1429 275.1429 104.1429 262.2857 117 263 117 275.5" style="fill:none; stroke:#000; stroke-miterlimit:10; stroke-width:.75px;"/><polygon points="44.4194 288 27 288 27 273 44.4194 273.4839 44.4194 288" style="fill:none; stroke:#000; stroke-miterlimit:10; stroke-width:.75px;"/><polygon points="60.75 288 44.4194 288 44.4194 273.4839 60.75 273.9375 60.75 288" style="fill:none; stroke:#000; stroke-miterlimit:10; stroke-width:.75px;"/><polygon points="76.0909 288 60.75 288 60.75 273.9375 76.0909 274.3636 76.0909 288" style="fill:none; stroke:#000; stroke-miterlimit:10; stroke-width:.75px;"/><polygon points="90.5294 288 76.0909 288 76.0909 274.3636 90.5294 274.7647 90.5294 288" style="fill:none; stroke:#000; stroke-miterlimit:10; stroke-width:.75px;"/><polygon points="104.1429 288 90.5294 288 90.5294 274.7647 104.1429 275.1429 104.1429 288" style="fill:none; stroke:#000; stroke-miterlimit:10; stroke-width:.75px;"/><polygon points="117 288 104.1429 288 104.1429 275.1429 117 275.5 117 288" style="fill:none; stroke:#000; stroke-miterlimit:10; stroke-width:.75px;"/><polygon points="44.4194 302.5161 27 303 27 288 44.4194 288 44.4194 302.5161" style="fill:none; stroke:#000; stroke-miterlimit:10; stroke-width:.75px;"/><polygon points="60.75 302.0625 44.4194 302.5161 44.4194 288 60.75 288 60.75 302.0625" style="fill:none; stroke:#000; stroke-miterlimit:10; stroke-width:.75px;"/><polygon points="76.0909 301.6364 60.75 302.0625 60.75 288 76.0909 288 76.0909 301.6364" style="fill:none; stroke:#000; stroke-miterlimit:10; stroke-width:.75px;"/><polygon points="90.5294 301.2353 76.0909 301.6364 76.0909 288 90.5294 288 90.5294 301.2353" style="fill:none; stroke:#000; stroke-miterlimit:10; stroke-width:.75px;"/><polygon points="104.1429 300.8571 90.5294 301.2353 90.5294 288 104.1429 288 104.1429 300.8571" style="fill:none; stroke:#000; stroke-miterlimit:10; stroke-width:.75px;"/><polygon points="117 300.5 104.1429 300.8571 104.1429 288 117 288 117 300.5" style="fill:none; stroke:#000; stroke-miterlimit:10; stroke-width:.75px;"/><polygon points="44.4194 317.0323 27 318 27 303 44.4194 302.5161 44.4194 317.0323" style="fill:none; stroke:#000; stroke-miterlimit:10; stroke-width:.75px;"/><polygon points="60.75 316.125 44.4194 317.0323 44.4194 302.5161 60.75 302.0625 60.75 316.125" style="fill:none; stroke:#000; stroke-miterlimit:10; stroke-width:.75px;"/><polygon points="76.0909 315.2727 60.75 316.125 60.75 302.0625 76.0909 301.6364 76.0909 315.2727" style="fill:none; stroke:#000; stroke-miterlimit:10; stroke-width:.75px;"/><polygon points="90.5294 314.4706 76.0909 315.2727 76.0909 301.6364 90.5294 301.2353 90.5294 314.4706" style="fill:none; stroke:#000; stroke-miterlimit:10; stroke-width:.75px;"/><polygon points="104.1429 313.7143 90.5294 314.4706 90.5294 301.2353 104.1429 300.8571 104.1429 313.7143" style="fill:none; stroke:#000; stroke-miterlimit:10; stroke-width:.75px;"/><polygon points="117 313 104.1429 313.7143 104.1429 300.8571 117 300.5 117 313" style="fill:none; stroke:#000; stroke-miterlimit:10; stroke-width:.75px;"/><polygon points="44.4194 331.5484 27 333 27 318 44.4194 317.0323 44.4194 331.5484" style="fill:none; stroke:#000; stroke-miterlimit:10; stroke-width:.75px;"/><polygon points="60.75 330.1875 44.4194 331.5484 44.4194 317.0323 60.75 316.125 60.75 330.1875" style="fill:none; stroke:#000; stroke-miterlimit:10; stroke-width:.75px;"/><polygon points="76.0909 328.9091 60.75 330.1875 60.75 316.125 76.0909 315.2727 76.0909 328.9091" style="fill:none; stroke:#000; stroke-miterlimit:10; stroke-width:.75px;"/><polygon points="90.5294 327.7059 76.0909 328.9091 76.0909 315.2727 90.5294 314.4706 90.5294 327.7059" style="fill:none; stroke:#000; stroke-miterlimit:10; stroke-width:.75px;"/><polygon points="104.1429 326.5714 90.5294 327.7059 90.5294 314.4706 104.1429 313.7143 104.1429 326.5714" style="fill:none; stroke:#000; stroke-miterlimit:10; stroke-width:.75px;"/><polygon points="117 325.5 104.1429 326.5714 104.1429 313.7143 117 313 117 325.5" style="fill:none; stroke:#000; stroke-miterlimit:10; stroke-width:.75px;"/><g style="clip-path:url(#uuid-4dc02356-cdcc-4a84-aa0f-042287ec9eae);"><line x1="52.5847" y1="64.7419" x2="372.2723" y2="191.2495" style="fill:none; stroke:#ed1c24; stroke-miterlimit:10; stroke-width:.75px;"/><path d="M51.5471,67.3639c-1.4479-.573-2.1574-2.2117-1.5844-3.6596s2.2117-2.1574,3.6596-1.5844c1.4479.573,2.1573,2.2117,1.5844,3.6596-.573,1.4479-2.2117,2.1574-3.6595,1.5844Z" style="fill:#ed1c24; stroke-width:0px;"/><path d="M371.2347,193.8715c1.4479.573,3.0866-.1365,3.6596-1.5844.573-1.4479-.1365-3.0866-1.5844-3.6596-1.4478-.573-3.0866.1365-3.6595,1.5844-.5729,1.4479.1365,3.0866,1.5844,3.6596Z" style="fill:#ed1c24; stroke-width:0px;"/><line x1="52.5847" y1="79.2581" x2="372.2727" y2="191.25" style="fill:none; stroke:#ed1c24; stroke-miterlimit:10; stroke-width:.75px;"/><path d="M51.6524,81.9193c-1.4696-.5148-2.2438-2.124-1.729-3.5935.5148-1.4696,2.124-2.2438,3.5936-1.729,1.4695.5148,2.2438,2.124,1.7289,3.5935-.5148,1.4696-2.124,2.2438-3.5935,1.729Z" style="fill:#ed1c24; stroke-width:0px;"/><circle cx="372.2727" cy="191.25" r="2.8198" transform="translate(51.6247 460.2266) rotate(-67.1829)" style="fill:#ed1c24; stroke-width:0px;"/><line x1="52.5847" y1="93.5474" x2="372.2727" y2="191.2501" style="fill:none; stroke:#ed1c24; stroke-miterlimit:10; stroke-width:.75px;"/><path d="M51.7605,96.2441c-1.4892-.4551-2.3277-2.0317-1.8726-3.5209s2.0317-2.3276,3.5209-1.8725c1.4891.4551,2.3276,2.0317,1.8725,3.5209-.4551,1.4891-2.0317,2.3276-3.5208,1.8725Z" style="fill:#ed1c24; stroke-width:0px;"/><path d="M371.4485,193.9468c1.4892.4551,3.0658-.3834,3.5209-1.8725s-.3834-3.0658-1.8726-3.5209-3.0657.3834-3.5208,1.8725.3834,3.0658,1.8725,3.5208Z" style="fill:#ed1c24; stroke-width:0px;"/><line x1="68.4204" y1="92.8807" x2="372.2727" y2="191.25" style="fill:none; stroke:#ed1c24; stroke-miterlimit:10; stroke-width:.75px;"/><path d="M67.5519,95.5634c-1.4815-.4796-2.2939-2.0698-1.8143-3.5513s2.0698-2.2938,3.5513-1.8142c1.4814.4796,2.2938,2.0698,1.8142,3.5512-.4796,1.4814-2.0698,2.2938-3.5512,1.8142Z" style="fill:#ed1c24; stroke-width:0px;"/><path d="M371.4042,193.9327c1.4814.4796,3.0717-.3328,3.5513-1.8142.4796-1.4814-.3328-3.0717-1.8142-3.5513-1.4814-.4796-3.0716.3328-3.5512,1.8142-.4796,1.4814.3328,3.0717,1.8142,3.5512Z" style="fill:#ed1c24; stroke-width:0px;"/><line x1="68.4204" y1="79.0312" x2="372.2727" y2="191.2496" style="fill:none; stroke:#ed1c24; stroke-miterlimit:10; stroke-width:.75px;"/><path d="M67.4435,81.6764c-1.4607-.5395-2.2078-2.1614-1.6683-3.6221.5395-1.4607,2.1614-2.2077,3.6221-1.6683,1.4607.5395,2.2077,2.1614,1.6683,3.6221-.5395,1.4607-2.1614,2.2077-3.6221,1.6683Z" style="fill:#ed1c24; stroke-width:0px;"/><path d="M371.2958,193.8949c1.4607.5395,3.0827-.2076,3.6221-1.6683s-.2076-3.0827-1.6683-3.6221c-1.4607-.5395-3.0826.2076-3.6221,1.6683-.5395,1.4607.2076,3.0827,1.6682,3.6221Z" style="fill:#ed1c24; stroke-width:0px;"/><line x1="68.4204" y1="64.9688" x2="372.273" y2="191.2497" style="fill:none; stroke:#ed1c24; stroke-miterlimit:10; stroke-width:.75px;"/><path d="M67.3383,67.5727c-1.4379-.5976-2.1193-2.2482-1.5217-3.6861.5976-1.4379,2.2482-2.1193,3.6861-1.5217,1.4379.5976,2.1193,2.2482,1.5217,3.6861-.5976,1.4379-2.2482,2.1193-3.6861,1.5217Z" style="fill:#ed1c24; stroke-width:0px;"/><path d="M371.1909,193.8536c1.4379.5976,3.0885-.0838,3.6861-1.5217.5976-1.4379-.0838-3.0885-1.5217-3.6861-1.4379-.5976-3.0885.0838-3.6861,1.5217-.5976,1.4379.0838,3.0885,1.5217,3.6861Z" style="fill:#ed1c24; stroke-width:0px;"/><line x1="83.3102" y1="65.1818" x2="372.2727" y2="191.249" style="fill:none; stroke:#ed1c24; stroke-miterlimit:10; stroke-width:.75px;"/><path d="M82.1826,67.7664c-1.4272-.6227-2.0797-2.285-1.457-3.7122.6227-1.4272,2.2849-2.0796,3.7122-1.457,1.4272.6226,2.0796,2.2849,1.457,3.7121-.6227,1.4272-2.2849,2.0796-3.7121,1.457Z" style="fill:#ed1c24; stroke-width:0px;"/><path d="M371.1451,193.8336c1.4272.6227,3.0895-.0298,3.7122-1.457.6227-1.4272-.0298-3.0895-1.457-3.7122-1.4272-.6227-3.0894.0298-3.7121,1.457-.6227,1.4272.0298,3.0895,1.457,3.7121Z" style="fill:#ed1c24; stroke-width:0px;"/><line x1="83.3102" y1="78.8182" x2="372.2727" y2="191.25" style="fill:none; stroke:#ed1c24; stroke-miterlimit:10; stroke-width:.75px;"/><path d="M82.2877,81.4461c-1.4512-.5646-2.1701-2.1993-1.6054-3.6504.5646-1.4512,2.1992-2.1701,3.6504-1.6054,1.4511.5646,2.17,2.1992,1.6054,3.6504-.5646,1.4512-2.1992,2.1701-3.6504,1.6054Z" style="fill:#ed1c24; stroke-width:0px;"/><path d="M371.2502,193.8779c1.4512.5646,3.0858-.1543,3.6504-1.6054.5646-1.4511-.1543-3.0858-1.6055-3.6504-1.4511-.5646-3.0857.1543-3.6504,1.6054s.1543,3.0858,1.6054,3.6504Z" style="fill:#ed1c24; stroke-width:0px;"/><line x1="83.3102" y1="92.254" x2="372.2727" y2="191.25" style="fill:none; stroke:#ed1c24; stroke-miterlimit:10; stroke-width:.75px;"/><path d="M82.3963,94.9216c-1.4731-.5047-2.2584-2.1085-1.7537-3.5815.5047-1.4731,2.1085-2.2584,3.5816-1.7537,1.4731.5047,2.2584,2.1084,1.7537,3.5815-.5047,1.4731-2.1084,2.2584-3.5815,1.7537Z" style="fill:#ed1c24; stroke-width:0px;"/><path d="M371.3588,193.9176c1.4731.5047,3.0769-.2806,3.5815-1.7537s-.2806-3.0769-1.7538-3.5815c-1.4731-.5047-3.0768.2806-3.5815,1.7537s.2806,3.0769,1.7537,3.5815Z" style="fill:#ed1c24; stroke-width:0px;"/><line x1="52.5847" y1="172.7422" x2="372.2727" y2="191.2499" style="fill:none; stroke:#ed1c24; stroke-miterlimit:10; stroke-width:.75px;"/><path d="M52.4217,175.5573c-1.5546-.09-2.7422-1.4236-2.6522-2.9781.09-1.5545,1.4236-2.7421,2.9781-2.6521,1.5545.09,2.7421,1.4236,2.6521,2.9781-.09,1.5545-1.4236,2.7421-2.9781,2.6521Z" style="fill:#ed1c24; stroke-width:0px;"/><path d="M372.1097,194.065c1.5546.09,2.8881-1.0976,2.9781-2.6521.09-1.5545-1.0976-2.8881-2.6522-2.9781-1.5545-.09-2.8881,1.0976-2.9781,2.6521s1.0976,2.8881,2.6521,2.9781Z" style="fill:#ed1c24; stroke-width:0px;"/><line x1="68.4204" y1="172.9688" x2="372.2727" y2="191.2496" style="fill:none; stroke:#ed1c24; stroke-miterlimit:10; stroke-width:.75px;"/><path d="M68.2511,175.7835c-1.5543-.0935-2.7389-1.4298-2.6454-2.9841.0935-1.5543,1.4298-2.7389,2.9841-2.6454,1.5543.0935,2.7389,1.4298,2.6454,2.9841s-1.4298,2.7389-2.9841,2.6454Z" style="fill:#ed1c24; stroke-width:0px;"/><path d="M372.1034,194.0643c1.5544.0935,2.8906-1.0911,2.9841-2.6454.0935-1.5543-1.0911-2.8906-2.6454-2.9841-1.5543-.0935-2.8906,1.0911-2.9841,2.6454s1.0911,2.8906,2.6454,2.9841Z" style="fill:#ed1c24; stroke-width:0px;"/><line x1="83.3102" y1="173.1818" x2="372.2727" y2="191.2496" style="fill:none; stroke:#ed1c24; stroke-miterlimit:10; stroke-width:.75px;"/><path d="M83.1342,175.9962c-1.5541-.0972-2.7356-1.4362-2.6384-2.9903.0972-1.5541,1.4362-2.7355,2.9903-2.6384,1.5541.0972,2.7355,1.4362,2.6383,2.9903-.0972,1.5541-1.4362,2.7355-2.9903,2.6384Z" style="fill:#ed1c24; stroke-width:0px;"/><path d="M372.0967,194.064c1.5541.0972,2.8932-1.0843,2.9903-2.6384s-1.0843-2.8931-2.6384-2.9903c-1.5541-.0972-2.8931,1.0843-2.9903,2.6384-.0972,1.5541,1.0843,2.8931,2.6383,2.9903Z" style="fill:#ed1c24; stroke-width:0px;"/><line x1="52.5847" y1="187.2581" x2="372.2727" y2="191.2501" style="fill:none; stroke:#ed1c24; stroke-miterlimit:10; stroke-width:.75px;"/><path d="M52.5495,190.0777c-1.557-.0194-2.8039-1.2978-2.7844-2.8548.0194-1.557,1.2978-2.8038,2.8548-2.7844,1.557.0194,2.8038,1.2978,2.7844,2.8548s-1.2978,2.8038-2.8548,2.7844Z" style="fill:#ed1c24; stroke-width:0px;"/><path d="M372.2375,194.0697c1.557.0194,2.8354-1.2274,2.8548-2.7844s-1.2274-2.8354-2.7844-2.8548c-1.557-.0194-2.8353,1.2274-2.8548,2.7844-.0195,1.557,1.2274,2.8354,2.7844,2.8548Z" style="fill:#ed1c24; stroke-width:0px;"/><line x1="68.4204" y1="187.0312" x2="372.2727" y2="191.2501" style="fill:none; stroke:#ed1c24; stroke-miterlimit:10; stroke-width:.75px;"/><path d="M68.3813,189.8508c-1.557-.0216-2.802-1.3017-2.7804-2.8587.0216-1.557,1.3017-2.802,2.8587-2.7804,1.557.0216,2.802,1.3017,2.7804,2.8587-.0216,1.557-1.3017,2.802-2.8587,2.7804Z" style="fill:#ed1c24; stroke-width:0px;"/><path d="M372.2336,194.0697c1.557.0216,2.8371-1.2234,2.8587-2.7804.0216-1.557-1.2234-2.8371-2.7804-2.8587-1.5569-.0216-2.837,1.2234-2.8587,2.7804-.0216,1.557,1.2234,2.8371,2.7804,2.8587Z" style="fill:#ed1c24; stroke-width:0px;"/><line x1="83.3102" y1="186.8182" x2="372.2727" y2="191.2501" style="fill:none; stroke:#ed1c24; stroke-miterlimit:10; stroke-width:.75px;"/><path d="M83.2669,189.6377c-1.557-.0239-2.8002-1.3058-2.7763-2.8627s1.3058-2.8001,2.8628-2.7762c1.5569.0239,2.8001,1.3058,2.7762,2.8627s-1.3058,2.8001-2.8627,2.7763Z" style="fill:#ed1c24; stroke-width:0px;"/><path d="M372.2295,194.0696c1.5569.0239,2.8389-1.2193,2.8627-2.7763.0239-1.5569-1.2193-2.8389-2.7762-2.8627s-2.8388,1.2193-2.8627,2.7762c-.0239,1.5569,1.2193,2.8389,2.7762,2.8627Z" style="fill:#ed1c24; stroke-width:0px;"/><line x1="52.5847" y1="201.5474" x2="372.2727" y2="191.2501" style="fill:none; stroke:#ed1c24; stroke-miterlimit:10; stroke-width:.75px;"/><path d="M52.6755,204.3658c-1.5563.0501-2.859-1.1713-2.9092-2.7276s1.1713-2.859,2.7276-2.9091c1.5563-.0501,2.859,1.1713,2.9091,2.7276.0501,1.5563-1.1713,2.859-2.7276,2.9091Z" style="fill:#ed1c24; stroke-width:0px;"/><path d="M372.3635,194.0685c1.5563-.0501,2.7777-1.3528,2.7276-2.9091-.0501-1.5563-1.3528-2.7777-2.9091-2.7276-1.5563.0501-2.7777,1.3528-2.7276,2.9091.0501,1.5563,1.3528,2.7777,2.9091,2.7276Z" style="fill:#ed1c24; stroke-width:0px;"/><line x1="68.4204" y1="200.8807" x2="372.2727" y2="191.2499" style="fill:none; stroke:#ed1c24; stroke-miterlimit:10; stroke-width:.75px;"/><path d="M68.5098,203.6991c-1.5564.0493-2.8584-1.1727-2.9078-2.7291-.0493-1.5564,1.1727-2.8584,2.7291-2.9077,1.5563-.0493,2.8584,1.1727,2.9077,2.7291.0493,1.5564-1.1727,2.8584-2.729,2.9077Z" style="fill:#ed1c24; stroke-width:0px;"/><path d="M372.3621,194.0684c1.5564-.0493,2.7784-1.3514,2.7291-2.9077s-1.3514-2.7784-2.9078-2.7291c-1.5563.0493-2.7784,1.3514-2.729,2.9077.0493,1.5563,1.3514,2.7784,2.9077,2.7291Z" style="fill:#ed1c24; stroke-width:0px;"/><line x1="83.3102" y1="200.2546" x2="372.2727" y2="191.2506" style="fill:none; stroke:#ed1c24; stroke-miterlimit:10; stroke-width:.75px;"/><path d="M83.398,203.073c-1.5564.0485-2.8578-1.1743-2.9063-2.7306-.0485-1.5564,1.1743-2.8578,2.7307-2.9063,1.5564-.0485,2.8578,1.1743,2.9062,2.7306.0485,1.5564-1.1743,2.8578-2.7306,2.9063Z" style="fill:#ed1c24; stroke-width:0px;"/><path d="M372.3605,194.0691c1.5564-.0485,2.7792-1.3499,2.7307-2.9063-.0485-1.5564-1.3499-2.7791-2.9063-2.7306-1.5564.0485-2.7791,1.3499-2.7306,2.9063.0485,1.5564,1.3499,2.7791,2.9062,2.7307Z" style="fill:#ed1c24; stroke-width:0px;"/><line x1="52.5847" y1="280.7419" x2="372.2727" y2="191.2498" style="fill:none; stroke:#ed1c24; stroke-miterlimit:10; stroke-width:.75px;"/><path d="M53.3448,283.4574c-1.4995.4198-3.0558-.4558-3.4756-1.9553-.4198-1.4995.4558-3.0558,1.9553-3.4756,1.4995-.4197,3.0558.4558,3.4756,1.9553s-.4558,3.0558-1.9553,3.4756Z" style="fill:#ed1c24; stroke-width:0px;"/><path d="M373.0329,193.9652c1.4995-.4198,2.3751-1.9761,1.9553-3.4756-.4198-1.4995-1.9761-2.375-3.4756-1.9553-1.4995.4197-2.375,1.9761-1.9553,3.4756s1.9761,2.375,3.4756,1.9553Z" style="fill:#ed1c24; stroke-width:0px;"/><line x1="68.4204" y1="280.9688" x2="372.2727" y2="191.2496" style="fill:none; stroke:#ed1c24; stroke-miterlimit:10; stroke-width:.75px;"/><path d="M69.219,283.6732c-1.4934.4409-3.062-.4125-3.503-1.9059-.441-1.4934.4125-3.062,1.9059-3.503,1.4934-.4409,3.0619.4125,3.5029,1.9059s-.4125,3.062-1.9058,3.5029Z" style="fill:#ed1c24; stroke-width:0px;"/><path d="M373.0713,193.954c1.4934-.441,2.3468-2.0096,1.9059-3.5029-.4409-1.4934-2.0096-2.3468-3.503-1.9059-1.4933.4409-2.3468,2.0095-1.9058,3.5029.4409,1.4934,2.0095,2.3468,3.5029,1.9059Z" style="fill:#ed1c24; stroke-width:0px;"/><line x1="83.3102" y1="281.1818" x2="372.2724" y2="191.2495" style="fill:none; stroke:#ed1c24; stroke-miterlimit:10; stroke-width:.75px;"/><path d="M84.1481,283.8743c-1.4868.4627-3.0677-.3677-3.5304-1.8545s.3677-3.0677,1.8545-3.5304c1.4868-.4627,3.0676.3677,3.5304,1.8545s-.3677,3.0677-1.8545,3.5304Z" style="fill:#ed1c24; stroke-width:0px;"/><path d="M373.1103,193.9419c1.4868-.4627,2.3172-2.0436,1.8545-3.5304-.4627-1.4868-2.0436-2.3172-3.5304-1.8545-1.4868.4627-2.3172,2.0436-1.8545,3.5304s2.0436,2.3172,3.5304,1.8545Z" style="fill:#ed1c24; stroke-width:0px;"/><line x1="52.5847" y1="295.2581" x2="372.2727" y2="191.2493" style="fill:none; stroke:#ed1c24; stroke-miterlimit:10; stroke-width:.75px;"/><path d="M53.4571,297.9395c-1.4808.4818-3.0722-.3283-3.5539-1.8091-.4817-1.4807.3283-3.0721,1.8091-3.5539,1.4807-.4818,3.0721.3283,3.5539,1.8091.4818,1.4807-.3283,3.0721-1.809,3.5539Z" style="fill:#ed1c24; stroke-width:0px;"/><path d="M373.1451,193.9308c1.4808-.4818,2.2909-2.0732,1.8091-3.5539-.4818-1.4807-2.0732-2.2908-3.5539-1.8091-1.4807.4817-2.2908,2.0731-1.8091,3.5539.4818,1.4807,2.0732,2.2908,3.5538,1.8091Z" style="fill:#ed1c24; stroke-width:0px;"/><line x1="68.4204" y1="295.0312" x2="372.2727" y2="191.2492" style="fill:none; stroke:#ed1c24; stroke-miterlimit:10; stroke-width:.75px;"/><path d="M69.3319,297.6997c-1.4736.5033-3.0766-.2835-3.5799-1.757s.2835-3.0766,1.7571-3.5799c1.4735-.5033,3.0766.2835,3.5799,1.757s-.2835,3.0766-1.757,3.5799Z" style="fill:#ed1c24; stroke-width:0px;"/><path d="M373.1841,193.9177c1.4736-.5033,2.2604-2.1064,1.7571-3.5799-.5033-1.4736-2.1064-2.2603-3.5799-1.757-1.4735.5033-2.2603,2.1063-1.757,3.5799s2.1064,2.2603,3.5799,1.757Z" style="fill:#ed1c24; stroke-width:0px;"/><line x1="83.3102" y1="294.8182" x2="372.2727" y2="191.2501" style="fill:none; stroke:#ed1c24; stroke-miterlimit:10; stroke-width:.75px;"/><path d="M84.2616,297.4727c-1.4658.5254-3.0805-.2372-3.6059-1.7031s.2373-3.0805,1.7031-3.6059c1.4658-.5254,3.0805.2373,3.6059,1.7031s-.2373,3.0805-1.703,3.6059Z" style="fill:#ed1c24; stroke-width:0px;"/><path d="M373.2241,193.9046c1.4659-.5254,2.2285-2.1401,1.7031-3.6059-.5254-1.4658-2.14-2.2285-3.6059-1.7031-1.4658.5254-2.2284,2.1401-1.7031,3.6059.5254,1.4658,2.1401,2.2284,3.6059,1.7031Z" style="fill:#ed1c24; stroke-width:0px;"/><line x1="52.5847" y1="309.5474" x2="372.2727" y2="191.2501" style="fill:none; stroke:#ed1c24; stroke-miterlimit:10; stroke-width:.75px;"/><path d="M53.5633,312.192c-1.4604.5404-3.0828-.2056-3.6232-1.666-.5404-1.4603.2056-3.0828,1.666-3.6232,1.4603-.5404,3.0828.2056,3.6231,1.666.5404,1.4604-.2056,3.0828-1.666,3.6232Z" style="fill:#ed1c24; stroke-width:0px;"/><path d="M373.2513,193.8947c1.4604-.5404,2.2064-2.1628,1.666-3.6232-.5404-1.4603-2.1628-2.2064-3.6232-1.666-1.4603.5404-2.2063,2.1628-1.666,3.6232s2.1628,2.2064,3.6231,1.666Z" style="fill:#ed1c24; stroke-width:0px;"/><line x1="68.4204" y1="308.8807" x2="372.2727" y2="191.2501" style="fill:none; stroke:#ed1c24; stroke-miterlimit:10; stroke-width:.75px;"/><path d="M69.4385,311.5103c-1.4521.5622-3.0855-.1595-3.6477-1.6116s.1595-3.0855,1.6117-3.6477c1.4521-.5622,3.0855.1595,3.6476,1.6116s-.1595,3.0855-1.6116,3.6477Z" style="fill:#ed1c24; stroke-width:0px;"/><path d="M373.2907,193.8798c1.4521-.5622,2.1738-2.1956,1.6117-3.6477-.5622-1.4521-2.1956-2.1738-3.6477-1.6116-1.4521.5621-2.1738,2.1955-1.6116,3.6477.5622,1.4521,2.1956,2.1738,3.6476,1.6116Z" style="fill:#ed1c24; stroke-width:0px;"/><line x1="83.3102" y1="308.254" x2="372.2727" y2="191.2501" style="fill:none; stroke:#ed1c24; stroke-miterlimit:10; stroke-width:.75px;"/><path d="M84.3685,310.8677c-1.4433.5844-3.0876-.1121-3.672-1.5554-.5844-1.4433.1121-3.0876,1.5554-3.672,1.4433-.5844,3.0876.1121,3.672,1.5554.5844,1.4433-.1121,3.0876-1.5554,3.672Z" style="fill:#ed1c24; stroke-width:0px;"/><path d="M373.331,193.8638c1.4433-.5844,2.1398-2.2287,1.5554-3.672s-2.2287-2.1398-3.672-1.5554c-1.4433.5844-2.1398,2.2287-1.5554,3.672s2.2287,2.1398,3.672,1.5554Z" style="fill:#ed1c24; stroke-width:0px;"/></g><g style="clip-path:url(#uuid-07bf4b54-21d4-4f47-9349-8fe5c45c5ec7);"><g style="opacity:.5;"><line x1="52.5847" y1="64.742" x2="372.2723" y2="191.2496" style="fill:none; stroke:#ed1c24; stroke-miterlimit:10; stroke-width:.75px;"/><path d="M51.5471,67.364c-1.4479-.573-2.1574-2.2117-1.5844-3.6596.573-1.4479,2.2117-2.1574,3.6596-1.5844,1.4479.573,2.1573,2.2117,1.5844,3.6596s-2.2117,2.1574-3.6595,1.5844Z" style="fill:#ed1c24; stroke-width:0px;"/><path d="M371.2347,193.8716c1.4479.573,3.0866-.1365,3.6596-1.5844.5729-1.4479-.1365-3.0866-1.5844-3.6596-1.4479-.573-3.0866.1365-3.6595,1.5844-.573,1.4479.1365,3.0866,1.5844,3.6596Z" style="fill:#ed1c24; stroke-width:0px;"/></g><g style="opacity:.5;"><line x1="52.5847" y1="79.2581" x2="372.2728" y2="191.25" style="fill:none; stroke:#ed1c24; stroke-miterlimit:10; stroke-width:.75px;"/><path d="M51.6524,81.9194c-1.4696-.5148-2.2438-2.124-1.729-3.5935.5148-1.4696,2.124-2.2438,3.5936-1.729,1.4695.5148,2.2438,2.124,1.7289,3.5935-.5148,1.4696-2.124,2.2438-3.5935,1.729Z" style="fill:#ed1c24; stroke-width:0px;"/><path d="M371.3405,193.9113c1.4696.5148,3.0787-.2594,3.5936-1.729.5148-1.4696-.2594-3.0787-1.729-3.5935-1.4695-.5148-3.0787.2594-3.5935,1.729-.5148,1.4696.2594,3.0787,1.7289,3.5935Z" style="fill:#ed1c24; stroke-width:0px;"/></g><g style="opacity:.5;"><line x1="52.5847" y1="93.5474" x2="372.2728" y2="191.2502" style="fill:none; stroke:#ed1c24; stroke-miterlimit:10; stroke-width:.75px;"/><path d="M51.7606,96.2441c-1.4892-.4551-2.3277-2.0317-1.8726-3.5209.4551-1.4891,2.0317-2.3276,3.5209-1.8725,1.4891.4551,2.3276,2.0317,1.8725,3.5209-.4551,1.4891-2.0317,2.3276-3.5208,1.8725Z" style="fill:#ed1c24; stroke-width:0px;"/><path d="M371.4486,193.9469c1.4892.4551,3.0658-.3834,3.5209-1.8725s-.3834-3.0658-1.8726-3.5209c-1.4891-.4551-3.0657.3834-3.5208,1.8725-.4551,1.4891.3834,3.0658,1.8725,3.5209Z" style="fill:#ed1c24; stroke-width:0px;"/></g><g style="opacity:.5;"><line x1="68.4205" y1="92.8807" x2="372.2728" y2="191.25" style="fill:none; stroke:#ed1c24; stroke-miterlimit:10; stroke-width:.75px;"/><path d="M67.552,95.5635c-1.4814-.4796-2.2938-2.0698-1.8142-3.5513s2.0698-2.2938,3.5513-1.8142c1.4814.4796,2.2938,2.0698,1.8142,3.5512s-2.0698,2.2938-3.5512,1.8142Z" style="fill:#ed1c24; stroke-width:0px;"/><path d="M371.4043,193.9328c1.4814.4796,3.0717-.3328,3.5513-1.8142.4796-1.4814-.3328-3.0717-1.8143-3.5513-1.4814-.4796-3.0716.3328-3.5512,1.8142-.4796,1.4814.3328,3.0717,1.8142,3.5512Z" style="fill:#ed1c24; stroke-width:0px;"/></g><g style="opacity:.5;"><line x1="68.4205" y1="79.0313" x2="372.2728" y2="191.2497" style="fill:none; stroke:#ed1c24; stroke-miterlimit:10; stroke-width:.75px;"/><path d="M67.4436,81.6765c-1.4607-.5395-2.2078-2.1614-1.6683-3.6221.5395-1.4607,2.1614-2.2077,3.6221-1.6683,1.4607.5395,2.2077,2.1614,1.6682,3.6221-.5395,1.4607-2.1614,2.2077-3.6221,1.6683Z" style="fill:#ed1c24; stroke-width:0px;"/><path d="M371.2958,193.8949c1.4607.5395,3.0827-.2076,3.6221-1.6683s-.2076-3.0827-1.6683-3.6221-3.0826.2076-3.6221,1.6683.2076,3.0827,1.6682,3.6221Z" style="fill:#ed1c24; stroke-width:0px;"/></g><g style="opacity:.5;"><line x1="68.4205" y1="64.9688" x2="372.2731" y2="191.2497" style="fill:none; stroke:#ed1c24; stroke-miterlimit:10; stroke-width:.75px;"/><path d="M67.3383,67.5727c-1.4379-.5976-2.1193-2.2482-1.5217-3.6861.5976-1.4379,2.2482-2.1193,3.6861-1.5217,1.4379.5976,2.1193,2.2482,1.5217,3.6861-.5976,1.4379-2.2482,2.1193-3.6861,1.5217Z" style="fill:#ed1c24; stroke-width:0px;"/><path d="M371.1909,193.8536c1.4379.5976,3.0885-.0838,3.6861-1.5217.5976-1.4379-.0838-3.0885-1.5218-3.6861-1.4379-.5976-3.0885.0838-3.686,1.5217-.5976,1.4379.0838,3.0885,1.5217,3.6861Z" style="fill:#ed1c24; stroke-width:0px;"/></g><g style="opacity:.5;"><line x1="83.3102" y1="65.1819" x2="372.2728" y2="191.249" style="fill:none; stroke:#ed1c24; stroke-miterlimit:10; stroke-width:.75px;"/><path d="M82.1826,67.7664c-1.4272-.6227-2.0797-2.2849-1.457-3.7122s2.2849-2.0796,3.7122-1.457c1.4272.6227,2.0796,2.2849,1.457,3.7121-.6227,1.4272-2.2849,2.0796-3.7121,1.457Z" style="fill:#ed1c24; stroke-width:0px;"/><path d="M371.1452,193.8336c1.4272.6227,3.0895-.0298,3.7122-1.457.6227-1.4272-.0298-3.0895-1.457-3.7122-1.4272-.6227-3.0895.0298-3.7121,1.457s.0298,3.0895,1.4569,3.7121Z" style="fill:#ed1c24; stroke-width:0px;"/></g><g style="opacity:.5;"><line x1="83.3102" y1="78.8182" x2="372.2728" y2="191.25" style="fill:none; stroke:#ed1c24; stroke-miterlimit:10; stroke-width:.75px;"/><path d="M82.2877,81.4461c-1.4512-.5646-2.1701-2.1993-1.6054-3.6504.5646-1.4511,2.1992-2.1701,3.6504-1.6054,1.4511.5646,2.17,2.1992,1.6054,3.6504-.5646,1.4511-2.1992,2.1701-3.6504,1.6054Z" style="fill:#ed1c24; stroke-width:0px;"/><path d="M371.2503,193.878c1.4512.5646,3.0858-.1543,3.6504-1.6054.5646-1.4511-.1543-3.0858-1.6054-3.6504-1.4511-.5646-3.0858.1543-3.6504,1.6054-.5646,1.4511.1543,3.0858,1.6054,3.6504Z" style="fill:#ed1c24; stroke-width:0px;"/></g><g style="opacity:.5;"><line x1="83.3102" y1="92.2541" x2="372.2728" y2="191.25" style="fill:none; stroke:#ed1c24; stroke-miterlimit:10; stroke-width:.75px;"/><path d="M82.3963,94.9217c-1.4731-.5047-2.2584-2.1085-1.7537-3.5815.5047-1.4731,2.1085-2.2584,3.5816-1.7537,1.4731.5047,2.2584,2.1084,1.7537,3.5815-.5047,1.4731-2.1084,2.2584-3.5815,1.7537Z" style="fill:#ed1c24; stroke-width:0px;"/><path d="M371.3589,193.9177c1.4731.5047,3.0769-.2806,3.5815-1.7537.5047-1.4731-.2806-3.0769-1.7537-3.5815-1.4731-.5047-3.0768.2806-3.5815,1.7537s.2806,3.0769,1.7537,3.5815Z" style="fill:#ed1c24; stroke-width:0px;"/></g><g style="opacity:.5;"><line x1="52.5847" y1="172.7422" x2="372.2728" y2="191.2499" style="fill:none; stroke:#ed1c24; stroke-miterlimit:10; stroke-width:.75px;"/><path d="M52.4217,175.5573c-1.5545-.09-2.7422-1.4236-2.6522-2.9781.09-1.5545,1.4236-2.7421,2.9781-2.6521,1.5545.09,2.7421,1.4236,2.6521,2.9781s-1.4236,2.7421-2.9781,2.6521Z" style="fill:#ed1c24; stroke-width:0px;"/><circle cx="372.2728" cy="191.2499" r="2.8198" style="fill:#ed1c24; stroke-width:0px;"/></g><g style="opacity:.5;"><line x1="68.4205" y1="172.9688" x2="372.2728" y2="191.2496" style="fill:none; stroke:#ed1c24; stroke-miterlimit:10; stroke-width:.75px;"/><path d="M68.2512,175.7835c-1.5543-.0935-2.7389-1.4298-2.6454-2.9841.0935-1.5543,1.4298-2.7389,2.9841-2.6454,1.5543.0935,2.7389,1.4298,2.6454,2.9841s-1.4298,2.7389-2.9841,2.6454Z" style="fill:#ed1c24; stroke-width:0px;"/><path d="M372.1034,194.0644c1.5543.0935,2.8906-1.0911,2.9841-2.6454s-1.0911-2.8906-2.6454-2.9841c-1.5543-.0935-2.8905,1.0911-2.984,2.6454-.0935,1.5543,1.0911,2.8906,2.6454,2.9841Z" style="fill:#ed1c24; stroke-width:0px;"/></g><g style="opacity:.5;"><line x1="83.3102" y1="173.1819" x2="372.2728" y2="191.2497" style="fill:none; stroke:#ed1c24; stroke-miterlimit:10; stroke-width:.75px;"/><path d="M83.1342,175.9962c-1.5541-.0972-2.7356-1.4362-2.6384-2.9903.0972-1.5541,1.4362-2.7355,2.9903-2.6384,1.5541.0972,2.7355,1.4362,2.6383,2.9903-.0972,1.5541-1.4362,2.7355-2.9903,2.6384Z" style="fill:#ed1c24; stroke-width:0px;"/><path d="M372.0968,194.064c1.5541.0972,2.8932-1.0843,2.9903-2.6384s-1.0843-2.8931-2.6384-2.9903c-1.5541-.0972-2.8931,1.0843-2.9903,2.6384s1.0843,2.8931,2.6383,2.9903Z" style="fill:#ed1c24; stroke-width:0px;"/></g><g style="opacity:.5;"><line x1="52.5847" y1="187.2581" x2="372.2728" y2="191.2502" style="fill:none; stroke:#ed1c24; stroke-miterlimit:10; stroke-width:.75px;"/><path d="M52.5495,190.0777c-1.557-.0194-2.8039-1.2978-2.7844-2.8548.0194-1.557,1.2978-2.8038,2.8548-2.7844,1.557.0194,2.8038,1.2978,2.7844,2.8548s-1.2978,2.8038-2.8548,2.7844Z" style="fill:#ed1c24; stroke-width:0px;"/><path d="M372.2375,194.0698c1.557.0194,2.8354-1.2274,2.8549-2.7844.0194-1.557-1.2274-2.8354-2.7844-2.8548s-2.8354,1.2274-2.8548,2.7844,1.2274,2.8354,2.7844,2.8548Z" style="fill:#ed1c24; stroke-width:0px;"/></g><g style="opacity:.5;"><line x1="68.4205" y1="187.0313" x2="372.2728" y2="191.2502" style="fill:none; stroke:#ed1c24; stroke-miterlimit:10; stroke-width:.75px;"/><path d="M68.3813,189.8508c-1.557-.0216-2.802-1.3017-2.7804-2.8587.0216-1.557,1.3017-2.802,2.8587-2.7804,1.557.0216,2.802,1.3017,2.7804,2.8587-.0216,1.557-1.3017,2.802-2.8587,2.7804Z" style="fill:#ed1c24; stroke-width:0px;"/><path d="M372.2336,194.0697c1.557.0216,2.8371-1.2234,2.8587-2.7804s-1.2234-2.8371-2.7804-2.8587c-1.557-.0216-2.8371,1.2234-2.8587,2.7804-.0216,1.557,1.2234,2.8371,2.7804,2.8587Z" style="fill:#ed1c24; stroke-width:0px;"/></g><g style="opacity:.5;"><line x1="83.3102" y1="186.8182" x2="372.2728" y2="191.2502" style="fill:none; stroke:#ed1c24; stroke-miterlimit:10; stroke-width:.75px;"/><path d="M83.267,189.6377c-1.557-.0239-2.8002-1.3058-2.7763-2.8627s1.3058-2.8001,2.8628-2.7762c1.5569.0239,2.8001,1.3058,2.7762,2.8627s-1.3058,2.8001-2.8627,2.7763Z" style="fill:#ed1c24; stroke-width:0px;"/><path d="M372.2295,194.0696c1.557.0239,2.8389-1.2193,2.8628-2.7762.0239-1.5569-1.2193-2.8389-2.7763-2.8627-1.5569-.0239-2.8388,1.2193-2.8627,2.7763-.0239,1.5569,1.2193,2.8389,2.7762,2.8627Z" style="fill:#ed1c24; stroke-width:0px;"/></g><g style="opacity:.5;"><line x1="52.5847" y1="201.5474" x2="372.2728" y2="191.2501" style="fill:none; stroke:#ed1c24; stroke-miterlimit:10; stroke-width:.75px;"/><path d="M52.6755,204.3658c-1.5563.0501-2.859-1.1713-2.9092-2.7276s1.1713-2.859,2.7276-2.9091c1.5563-.0501,2.859,1.1713,2.9091,2.7276.0501,1.5563-1.1713,2.859-2.7276,2.9091Z" style="fill:#ed1c24; stroke-width:0px;"/><path d="M372.3636,194.0685c1.5563-.0501,2.7777-1.3528,2.7276-2.9091s-1.3528-2.7777-2.9092-2.7276c-1.5563.0501-2.7777,1.3528-2.7275,2.9091.0501,1.5563,1.3528,2.7777,2.9091,2.7276Z" style="fill:#ed1c24; stroke-width:0px;"/></g><g style="opacity:.5;"><line x1="68.4205" y1="200.8808" x2="372.2728" y2="191.25" style="fill:none; stroke:#ed1c24; stroke-miterlimit:10; stroke-width:.75px;"/><path d="M68.5098,203.6992c-1.5564.0493-2.8584-1.1727-2.9078-2.7291-.0493-1.5564,1.1727-2.8584,2.7291-2.9077,1.5563-.0493,2.8584,1.1727,2.9077,2.7291s-1.1727,2.8584-2.729,2.9077Z" style="fill:#ed1c24; stroke-width:0px;"/><path d="M372.3621,194.0684c1.5564-.0493,2.7784-1.3514,2.7291-2.9077-.0493-1.5564-1.3514-2.7784-2.9077-2.7291-1.5563.0493-2.7784,1.3514-2.7291,2.9077.0493,1.5564,1.3514,2.7784,2.9077,2.7291Z" style="fill:#ed1c24; stroke-width:0px;"/></g><g style="opacity:.5;"><line x1="83.3102" y1="200.2546" x2="372.2728" y2="191.2507" style="fill:none; stroke:#ed1c24; stroke-miterlimit:10; stroke-width:.75px;"/><path d="M83.398,203.0731c-1.5564.0485-2.8578-1.1743-2.9063-2.7306-.0485-1.5564,1.1743-2.8578,2.7307-2.9063,1.5564-.0485,2.8577,1.1743,2.9062,2.7306.0485,1.5564-1.1743,2.8578-2.7306,2.9063Z" style="fill:#ed1c24; stroke-width:0px;"/><path d="M372.3606,194.0691c1.5564-.0485,2.7791-1.3499,2.7307-2.9063-.0485-1.5564-1.3499-2.7791-2.9063-2.7306-1.5563.0485-2.7791,1.3499-2.7306,2.9063.0485,1.5564,1.3499,2.7791,2.9062,2.7306Z" style="fill:#ed1c24; stroke-width:0px;"/></g><g style="opacity:.5;"><line x1="52.5847" y1="280.742" x2="372.2728" y2="191.2498" style="fill:none; stroke:#ed1c24; stroke-miterlimit:10; stroke-width:.75px;"/><path d="M53.3449,283.4574c-1.4995.4197-3.0558-.4558-3.4756-1.9553-.4198-1.4995.4558-3.0558,1.9553-3.4756,1.4995-.4198,3.0558.4558,3.4756,1.9553.4198,1.4995-.4558,3.0558-1.9553,3.4756Z" style="fill:#ed1c24; stroke-width:0px;"/><path d="M373.0329,193.9652c1.4995-.4198,2.3751-1.9761,1.9553-3.4756s-1.9761-2.375-3.4756-1.9553c-1.4995.4198-2.375,1.9761-1.9553,3.4756.4198,1.4995,1.9761,2.375,3.4756,1.9553Z" style="fill:#ed1c24; stroke-width:0px;"/></g><g style="opacity:.5;"><line x1="68.4205" y1="280.9688" x2="372.2728" y2="191.2497" style="fill:none; stroke:#ed1c24; stroke-miterlimit:10; stroke-width:.75px;"/><path d="M69.219,283.6732c-1.4934.441-3.062-.4125-3.503-1.9059s.4125-3.062,1.9059-3.5029c1.4934-.4409,3.0619.4125,3.5029,1.9059.441,1.4934-.4125,3.062-1.9058,3.5029Z" style="fill:#ed1c24; stroke-width:0px;"/><path d="M373.0713,193.9541c1.4934-.441,2.3469-2.0096,1.9059-3.5029-.4409-1.4934-2.0095-2.3468-3.5029-1.9059-1.4934.4409-2.3468,2.0095-1.9059,3.5029.4409,1.4934,2.0096,2.3468,3.5029,1.9059Z" style="fill:#ed1c24; stroke-width:0px;"/></g><g style="opacity:.5;"><line x1="83.3102" y1="281.1819" x2="372.2724" y2="191.2495" style="fill:none; stroke:#ed1c24; stroke-miterlimit:10; stroke-width:.75px;"/><path d="M84.1482,283.8743c-1.4868.4627-3.0677-.3677-3.5304-1.8545s.3677-3.0677,1.8545-3.5304c1.4868-.4627,3.0676.3677,3.5304,1.8545s-.3677,3.0677-1.8545,3.5304Z" style="fill:#ed1c24; stroke-width:0px;"/><path d="M373.1104,193.9419c1.4868-.4627,2.3172-2.0436,1.8545-3.5304-.4627-1.4868-2.0436-2.3172-3.5304-1.8545-1.4868.4627-2.3172,2.0436-1.8545,3.5304.4627,1.4868,2.0436,2.3172,3.5304,1.8545Z" style="fill:#ed1c24; stroke-width:0px;"/></g><g style="opacity:.5;"><line x1="52.5847" y1="295.2581" x2="372.2728" y2="191.2494" style="fill:none; stroke:#ed1c24; stroke-miterlimit:10; stroke-width:.75px;"/><path d="M53.4571,297.9396c-1.4808.4818-3.0722-.3283-3.5539-1.8091-.4817-1.4807.3283-3.0721,1.8091-3.5539,1.4807-.4818,3.0721.3283,3.5539,1.8091s-.3283,3.0721-1.809,3.5539Z" style="fill:#ed1c24; stroke-width:0px;"/><path d="M373.1452,193.9309c1.4807-.4818,2.2908-2.0732,1.8091-3.5539-.4817-1.4807-2.0732-2.2908-3.5539-1.8091-1.4807.4818-2.2908,2.0732-1.8091,3.5539s2.0732,2.2908,3.5539,1.8091Z" style="fill:#ed1c24; stroke-width:0px;"/></g><g style="opacity:.5;"><line x1="68.4205" y1="295.0313" x2="372.2728" y2="191.2493" style="fill:none; stroke:#ed1c24; stroke-miterlimit:10; stroke-width:.75px;"/><path d="M69.3319,297.6998c-1.4736.5033-3.0766-.2835-3.5799-1.757s.2835-3.0766,1.7571-3.5799c1.4735-.5033,3.0766.2835,3.5799,1.757s-.2835,3.0766-1.757,3.5799Z" style="fill:#ed1c24; stroke-width:0px;"/><path d="M373.1842,193.9178c1.4735-.5033,2.2603-2.1064,1.757-3.5799-.5033-1.4735-2.1064-2.2603-3.5799-1.757-1.4735.5033-2.2603,2.1063-1.757,3.5799.5033,1.4735,2.1063,2.2603,3.5799,1.757Z" style="fill:#ed1c24; stroke-width:0px;"/></g><g style="opacity:.5;"><line x1="83.3102" y1="294.8182" x2="372.2728" y2="191.2502" style="fill:none; stroke:#ed1c24; stroke-miterlimit:10; stroke-width:.75px;"/><path d="M84.2616,297.4727c-1.4658.5254-3.0805-.2373-3.6059-1.7031s.2373-3.0805,1.7031-3.6059c1.4658-.5254,3.0805.2372,3.6059,1.7031s-.2373,3.0805-1.703,3.6059Z" style="fill:#ed1c24; stroke-width:0px;"/><path d="M373.2242,193.9046c1.4659-.5254,2.2285-2.1401,1.7031-3.6059-.5254-1.4658-2.1401-2.2285-3.6059-1.7031-1.4658.5254-2.2284,2.14-1.703,3.6059.5254,1.4658,2.14,2.2285,3.6058,1.7031Z" style="fill:#ed1c24; stroke-width:0px;"/></g><g style="opacity:.5;"><line x1="52.5847" y1="309.5474" x2="372.2728" y2="191.2502" style="fill:none; stroke:#ed1c24; stroke-miterlimit:10; stroke-width:.75px;"/><path d="M53.5633,312.192c-1.4604.5404-3.0828-.2056-3.6232-1.666-.5404-1.4604.2056-3.0828,1.666-3.6232,1.4603-.5404,3.0828.2056,3.6231,1.666.5404,1.4603-.2056,3.0828-1.666,3.6231Z" style="fill:#ed1c24; stroke-width:0px;"/><path d="M373.2514,193.8947c1.4604-.5404,2.2064-2.1628,1.666-3.6232-.5404-1.4603-2.1628-2.2064-3.6232-1.666-1.4603.5404-2.2063,2.1628-1.666,3.6232.5404,1.4603,2.1628,2.2064,3.6232,1.666Z" style="fill:#ed1c24; stroke-width:0px;"/></g><g style="opacity:.5;"><line x1="68.4205" y1="308.8807" x2="372.2728" y2="191.2502" style="fill:none; stroke:#ed1c24; stroke-miterlimit:10; stroke-width:.75px;"/><path d="M69.4385,311.5104c-1.4521.5622-3.0855-.1595-3.6477-1.6116-.5622-1.4521.1595-3.0855,1.6116-3.6477,1.4521-.5621,3.0855.1595,3.6476,1.6117.5622,1.4521-.1595,3.0855-1.6116,3.6476Z" style="fill:#ed1c24; stroke-width:0px;"/><path d="M373.2908,193.8798c1.4521-.5622,2.1738-2.1956,1.6117-3.6477-.5622-1.4521-2.1956-2.1738-3.6477-1.6116-1.4521.5621-2.1738,2.1956-1.6116,3.6477.5622,1.4521,2.1956,2.1738,3.6476,1.6116Z" style="fill:#ed1c24; stroke-width:0px;"/></g><g style="opacity:.5;"><line x1="83.3102" y1="308.2541" x2="372.2728" y2="191.2502" style="fill:none; stroke:#ed1c24; stroke-miterlimit:10; stroke-width:.75px;"/><path d="M84.3685,310.8677c-1.4433.5844-3.0876-.1121-3.672-1.5554-.5844-1.4433.1121-3.0876,1.5554-3.672,1.4433-.5844,3.0876.1121,3.672,1.5554.5844,1.4433-.1121,3.0876-1.5554,3.672Z" style="fill:#ed1c24; stroke-width:0px;"/><circle cx="372.2728" cy="191.2501" r="2.8198" style="fill:#ed1c24; stroke-width:0px;"/></g></g><polygon points="384.5454 201.8182 360 202.5 360 180 384.5454 180 384.5454 201.8182" style="fill:#ed1c24; opacity:.25; stroke-width:0px;"/><polygon points="450 240 306 252 306 108 450 120 450 240" style="fill:none; stroke:#000; stroke-miterlimit:10; stroke-width:1.5px;"/><polygon points="333.871 133.5484 306 132 306 108 333.871 110.3226 333.871 133.5484" style="fill:none; stroke:#000; stroke-miterlimit:10; stroke-width:.75px;"/><polygon points="333.871 156.7742 306 156 306 132 333.871 133.5484 333.871 156.7742" style="fill:none; stroke:#000; stroke-miterlimit:10; stroke-width:.75px;"/><polygon points="360 135 333.871 133.5484 333.871 110.3226 360 112.5 360 135" style="fill:none; stroke:#000; stroke-miterlimit:10; stroke-width:.75px;"/><polygon points="360 157.5 333.871 156.7742 333.871 133.5484 360 135 360 157.5" style="fill:none; stroke:#000; stroke-miterlimit:10; stroke-width:.75px;"/><polygon points="384.5454 136.3636 360 135 360 112.5 384.5454 114.5454 384.5454 136.3636" style="fill:none; stroke:#000; stroke-miterlimit:10; stroke-width:.75px;"/><polygon points="384.5454 158.1818 360 157.5 360 135 384.5454 136.3636 384.5454 158.1818" style="fill:none; stroke:#000; stroke-miterlimit:10; stroke-width:.75px;"/><polygon points="407.6471 137.6471 384.5454 136.3636 384.5454 114.5454 407.6471 116.4706 407.6471 137.6471" style="fill:none; stroke:#000; stroke-miterlimit:10; stroke-width:.75px;"/><polygon points="407.6471 158.8235 384.5454 158.1818 384.5454 136.3636 407.6471 137.6471 407.6471 158.8235" style="fill:none; stroke:#000; stroke-miterlimit:10; stroke-width:.75px;"/><polygon points="429.4286 138.8571 407.6471 137.6471 407.6471 116.4706 429.4286 118.2857 429.4286 138.8571" style="fill:none; stroke:#000; stroke-miterlimit:10; stroke-width:.75px;"/><polygon points="450 140 429.4286 138.8571 429.4286 118.2857 450 120 450 140" style="fill:none; stroke:#000; stroke-miterlimit:10; stroke-width:.75px;"/><polygon points="429.4286 159.4286 407.6471 158.8235 407.6471 137.6471 429.4286 138.8571 429.4286 159.4286" style="fill:none; stroke:#000; stroke-miterlimit:10; stroke-width:.75px;"/><polygon points="450 160 429.4286 159.4286 429.4286 138.8571 450 140 450 160" style="fill:none; stroke:#000; stroke-miterlimit:10; stroke-width:.75px;"/><polygon points="333.871 180 306 180 306 156 333.871 156.7742 333.871 180" style="fill:none; stroke:#000; stroke-miterlimit:10; stroke-width:.75px;"/><polygon points="360 180 333.871 180 333.871 156.7742 360 157.5 360 180" style="fill:none; stroke:#000; stroke-miterlimit:10; stroke-width:.75px;"/><polygon points="384.5454 180 360 180 360 157.5 384.5454 158.1818 384.5454 180" style="fill:none; stroke:#000; stroke-miterlimit:10; stroke-width:.75px;"/><polygon points="407.6471 180 384.5454 180 384.5454 158.1818 407.6471 158.8235 407.6471 180" style="fill:none; stroke:#000; stroke-miterlimit:10; stroke-width:.75px;"/><polygon points="429.4286 180 407.6471 180 407.6471 158.8235 429.4286 159.4286 429.4286 180" style="fill:none; stroke:#000; stroke-miterlimit:10; stroke-width:.75px;"/><polygon points="450 180 429.4286 180 429.4286 159.4286 450 160 450 180" style="fill:none; stroke:#000; stroke-miterlimit:10; stroke-width:.75px;"/><polygon points="333.871 203.2258 306 204 306 180 333.871 180 333.871 203.2258" style="fill:none; stroke:#000; stroke-miterlimit:10; stroke-width:.75px;"/><polygon points="360 202.5 333.871 203.2258 333.871 180 360 180 360 202.5" style="fill:none; stroke:#000; stroke-miterlimit:10; stroke-width:.75px;"/><polygon points="384.5454 201.8182 360 202.5 360 180 384.5454 180 384.5454 201.8182" style="fill:none; stroke:#000; stroke-miterlimit:10; stroke-width:.75px;"/><polygon points="407.6471 201.1765 384.5454 201.8182 384.5454 180 407.6471 180 407.6471 201.1765" style="fill:none; stroke:#000; stroke-miterlimit:10; stroke-width:.75px;"/><polygon points="429.4286 200.5714 407.6471 201.1765 407.6471 180 429.4286 180 429.4286 200.5714" style="fill:none; stroke:#000; stroke-miterlimit:10; stroke-width:.75px;"/><polygon points="450 200 429.4286 200.5714 429.4286 180 450 180 450 200" style="fill:none; stroke:#000; stroke-miterlimit:10; stroke-width:.75px;"/><polygon points="333.871 226.4516 306 228 306 204 333.871 203.2258 333.871 226.4516" style="fill:none; stroke:#000; stroke-miterlimit:10; stroke-width:.75px;"/><polygon points="360 225 333.871 226.4516 333.871 203.2258 360 202.5 360 225" style="fill:none; stroke:#000; stroke-miterlimit:10; stroke-width:.75px;"/><polygon points="384.5454 223.6364 360 225 360 202.5 384.5454 201.8182 384.5454 223.6364" style="fill:none; stroke:#000; stroke-miterlimit:10; stroke-width:.75px;"/><polygon points="407.6471 222.3529 384.5454 223.6364 384.5454 201.8182 407.6471 201.1765 407.6471 222.3529" style="fill:none; stroke:#000; stroke-miterlimit:10; stroke-width:.75px;"/><polygon points="429.4286 221.1429 407.6471 222.3529 407.6471 201.1765 429.4286 200.5714 429.4286 221.1429" style="fill:none; stroke:#000; stroke-miterlimit:10; stroke-width:.75px;"/><polygon points="450 220 429.4286 221.1429 429.4286 200.5714 450 200 450 220" style="fill:none; stroke:#000; stroke-miterlimit:10; stroke-width:.75px;"/><polygon points="333.871 249.6774 306 252 306 228 333.871 226.4516 333.871 249.6774" style="fill:none; stroke:#000; stroke-miterlimit:10; stroke-width:.75px;"/><polygon points="360 247.5 333.871 249.6774 333.871 226.4516 360 225 360 247.5" style="fill:none; stroke:#000; stroke-miterlimit:10; stroke-width:.75px;"/><polygon points="384.5454 245.4546 360 247.5 360 225 384.5454 223.6364 384.5454 245.4546" style="fill:none; stroke:#000; stroke-miterlimit:10; stroke-width:.75px;"/><polygon points="407.6471 243.5294 384.5454 245.4546 384.5454 223.6364 407.6471 222.3529 407.6471 243.5294" style="fill:none; stroke:#000; stroke-miterlimit:10; stroke-width:.75px;"/><polygon points="429.4286 241.7143 407.6471 243.5294 407.6471 222.3529 429.4286 221.1429 429.4286 241.7143" style="fill:none; stroke:#000; stroke-miterlimit:10; stroke-width:.75px;"/><polygon points="450 240 429.4286 241.7143 429.4286 221.1429 450 220 450 240" style="fill:none; stroke:#000; stroke-miterlimit:10; stroke-width:.75px;"/></svg>